<svg version="1.2" xmlns="http://www.w3.org/2000/svg" viewBox="0 0 554 287" width="554" height="287">
	<defs>
		<clipPath clipPathUnits="userSpaceOnUse" id="cp1">
			<path d="m10 3h533c4.42 0 8 3.58 8 8v266c0 4.42-3.58 8-8 8h-533c-4.42 0-8-3.58-8-8v-266c0-4.42 3.58-8 8-8z"/>
		</clipPath>
	</defs>
	<style>
		.s0 { fill: #2b2b2b } 
		.s1 { opacity: .15;fill: #ffffff } 
		.s2 { fill: none;stroke: #ffffff;stroke-width: 1 } 
		.s3 { fill: none;stroke: #ffffff;stroke-width: 1;stroke-dasharray: 1.93,1.93 } 
		.s4 { fill: #ffffff } 
	</style>
	<g>
		<g id="Clip-Path" clip-path="url(#cp1)">
			<g>
				<path fill-rule="evenodd" class="s0" d="m10 3h533c4.42 0 8 3.58 8 8v266c0 4.42-3.58 8-8 8h-533c-4.42 0-8-3.58-8-8v-266c0-4.42 3.58-8 8-8z"/>
				<g>
					<path fill-rule="evenodd" class="s1" d="m-364.4 64.87h610.8c6.41 0 11.6 5.19 11.6 11.6v133.47c0 6.41-5.19 11.6-11.6 11.6h-610.8c-6.41 0-11.6-5.19-11.6-11.6v-133.47c0-6.41 5.19-11.6 11.6-11.6z"/>
					<path fill-rule="evenodd" class="s2" d="m65.92 133.97c-12.56 0-22.72-10.15-22.72-22.71 0-12.56 10.16-22.71 22.72-22.71 12.56 0 22.71 10.15 22.71 22.71 0 12.56-10.15 22.71-22.71 22.71z"/>
					<path fill-rule="evenodd" class="s2" d="m65.91 128.17c-9.35 0-16.91-7.56-16.91-16.91 0-9.35 7.56-16.91 16.91-16.91 9.36 0 16.92 7.56 16.92 16.91 0 9.35-7.56 16.91-16.92 16.91z"/>
					<path class="s2" d="m57.94 108.17v-4.64h4.64"/>
					<path class="s2" d="m68.77 103.53h4.64v4.64"/>
					<path class="s2" d="m73.41 114.35v4.64h-4.64"/>
					<path class="s2" d="m62.58 118.99h-4.64v-4.64"/>
					<path class="s2" d="m65.67 112.81c-3.09 0-4.64 1.32-4.64 1.32v1.77h9.28v-1.77c0 0-1.54-1.32-4.64-1.32z"/>
					<path class="s2" d="m63.55 108.36c0 0.56 0.22 1.11 0.62 1.5 0.4 0.4 0.94 0.63 1.5 0.63 0.57 0 1.11-0.23 1.51-0.63 0.4-0.39 0.62-0.94 0.62-1.5 0-0.56-0.22-1.11-0.62-1.5-0.4-0.4-0.94-0.63-1.51-0.63-0.56 0-1.1 0.23-1.5 0.63-0.4 0.39-0.62 0.94-0.62 1.5z"/>
					<path class="s3" d="m65.92 134.45v24.17"/>
					<path class="s4" d="m18.92 170.76v1.75 1.75h-0.64l-0.14-1.36h-3.31v-0.79h3.31l0.14-1.35zm1.84-0.12l-0.56 0.04-0.9-2.09 0.43 0.3h-4.9v-0.8h4.64l0.67-0.38h0.34zm-1.41 6.25l1.15-2.24 0.51 0.05-0.49 3.09h-0.39l-0.59-0.43h-4.71v-0.8h4.88zm-6.17 0.47v-0.43l1.16-0.33v-7.72l-1.16-0.34v-0.43h2.39v9.25zm10.59-5.02v4.32l1.01 0.3v0.4h-3.2v-0.4l1.07-0.3v-4.1q-0.11-0.1-0.36-0.24-0.26-0.15-0.72-0.34v-0.21l1.75-0.76h0.19zm3.97 0.44v3.88l1.01 0.31v0.39h-3.14v-0.39l1.01-0.31v-3.42q0-0.39-0.16-0.64-0.14-0.26-0.44-0.38-0.3-0.12-0.73-0.12-0.46 0-0.9 0.14-0.44 0.14-0.69 0.37l-0.19-0.28q0.43-0.39 0.75-0.65 0.32-0.26 0.6-0.39 0.28-0.14 0.55-0.2 0.28-0.06 0.6-0.06 0.62 0 1 0.23 0.38 0.21 0.56 0.6 0.17 0.4 0.17 0.92zm3.97 0.29v3.59l1.08 0.31v0.39h-3.21v-0.39l1.02-0.31v-3.42q0-0.39-0.16-0.64-0.15-0.25-0.45-0.37-0.3-0.13-0.73-0.13-0.46 0-0.91 0.14-0.44 0.14-0.69 0.37l-0.19-0.27q0.43-0.4 0.75-0.65 0.33-0.26 0.61-0.4 0.28-0.14 0.55-0.2 0.27-0.06 0.6-0.06 0.92 0 1.32 0.53 0.41 0.52 0.41 1.51zm4.58 4.43q-0.94 0-1.65-0.4-0.7-0.4-1.09-1.12-0.38-0.72-0.38-1.67 0-0.97 0.4-1.71 0.41-0.74 1.13-1.15 0.72-0.42 1.67-0.42 0.95 0 1.65 0.4 0.7 0.4 1.09 1.12 0.38 0.71 0.38 1.68 0 0.96-0.4 1.7-0.41 0.74-1.13 1.16-0.72 0.41-1.67 0.41zm0.02-0.7q0.61 0 1.05-0.25 0.44-0.26 0.67-0.78 0.25-0.53 0.25-1.34 0-0.89-0.23-1.48-0.23-0.61-0.66-0.91-0.43-0.31-1.04-0.3-0.6-0.01-1.04 0.25-0.44 0.25-0.69 0.77-0.23 0.52-0.23 1.34 0 0.88 0.22 1.48 0.23 0.6 0.66 0.91 0.44 0.31 1.04 0.31zm5.73-1.24q0 0.51 0.29 0.74 0.3 0.23 0.87 0.23 0.27 0 0.57-0.05 0.31-0.05 0.66-0.15v0.41q-0.45 0.29-0.79 0.46-0.33 0.16-0.6 0.22-0.26 0.06-0.51 0.06-0.46 0-0.83-0.16-0.36-0.17-0.57-0.5-0.21-0.34-0.21-0.84v-3.85l-0.94-0.45v-0.24q0.25-0.12 0.44-0.23 0.21-0.11 0.38-0.23 0.17-0.12 0.32-0.25 0.15-0.13 0.29-0.29 0.15-0.15 0.3-0.33h0.33v1.27zm-0.43-3.61l0.02-0.78h2.62l-0.06 0.78zm4.6-2.65q-0.4 0-0.66-0.23-0.25-0.23-0.25-0.62 0-0.38 0.25-0.61 0.26-0.23 0.66-0.23 0.4 0 0.65 0.23 0.26 0.23 0.26 0.61 0 0.39-0.26 0.62-0.25 0.23-0.65 0.23zm0.72 1.74l-0.07 1.25v4.38l1.06 0.3v0.4h-3.24v-0.4l1.06-0.3v-4.2q-0.07-0.07-0.26-0.17-0.17-0.11-0.39-0.21-0.22-0.11-0.43-0.19v-0.28l2.04-0.58zm4.59 6.47q-0.94 0-1.65-0.4-0.71-0.4-1.09-1.12-0.39-0.72-0.39-1.68 0-0.97 0.41-1.7 0.4-0.74 1.12-1.15 0.72-0.42 1.67-0.42 0.95 0 1.65 0.4 0.71 0.4 1.09 1.11 0.39 0.72 0.39 1.68 0 0.97-0.41 1.71-0.4 0.73-1.13 1.15-0.72 0.41-1.66 0.42zm0.02-0.71q0.6 0 1.04-0.25 0.44-0.26 0.68-0.78 0.24-0.52 0.24-1.34 0-0.88-0.23-1.48-0.22-0.6-0.66-0.9-0.42-0.31-1.04-0.31-0.6 0-1.04 0.25-0.44 0.25-0.68 0.78-0.24 0.52-0.24 1.34 0 0.88 0.22 1.48 0.23 0.6 0.67 0.91 0.43 0.3 1.04 0.3zm5.98-4.45v4.32l1.06 0.3v0.4h-3.24v-0.4l1.07-0.3v-4.1q-0.11-0.1-0.37-0.24-0.26-0.15-0.72-0.34v-0.21l1.75-0.76h0.19zm2.09 4.63l1.05-0.31v-3.31q0-0.41-0.16-0.69-0.15-0.28-0.48-0.42-0.32-0.14-0.81-0.14-0.52 0-1 0.16-0.48 0.16-0.74 0.39l-0.21-0.23q0.46-0.42 0.81-0.69 0.35-0.28 0.65-0.43 0.29-0.15 0.58-0.21 0.29-0.06 0.64-0.06 0.95 0 1.39 0.54 0.45 0.54 0.45 1.65v3.44l1.08 0.31v0.39h-3.25zm7.86-3.57l-0.05 0.64q-0.93 0.17-1.51 0.34-0.57 0.18-0.88 0.38-0.31 0.18-0.43 0.41-0.11 0.22-0.11 0.5 0 0.47 0.28 0.72 0.29 0.25 0.77 0.25 0.37 0 0.68-0.17 0.3-0.16 0.49-0.43 0.18-0.27 0.18-0.59v-2.44q0-0.6-0.29-0.91-0.27-0.31-0.96-0.31-0.28 0-0.58 0.06-0.29 0.05-0.56 0.15l0.41-0.38q-0.04 0.23-0.09 0.43-0.04 0.19-0.1 0.35-0.05 0.16-0.13 0.28-0.11 0.17-0.28 0.23-0.17 0.05-0.37 0.05-0.29 0-0.45-0.11-0.15-0.12-0.15-0.31 0-0.21 0.21-0.46 0.23-0.26 0.6-0.48 0.38-0.23 0.86-0.38 0.5-0.14 1.04-0.14 0.71 0 1.14 0.21 0.43 0.2 0.62 0.6 0.19 0.39 0.19 0.94v3.14q0 0.23 0.07 0.38 0.08 0.15 0.21 0.22 0.14 0.07 0.35 0.07 0.15 0 0.33-0.04 0.18-0.05 0.36-0.13v0.42q-0.3 0.31-0.64 0.46-0.33 0.14-0.62 0.14-0.37 0-0.62-0.17-0.26-0.17-0.4-0.5-0.14-0.33-0.15-0.81l0.05-0.05q-0.09 0.47-0.35 0.82-0.26 0.34-0.65 0.54-0.39 0.19-0.86 0.19-0.82 0-1.3-0.42-0.48-0.42-0.48-1.2 0-0.43 0.16-0.78 0.18-0.35 0.63-0.64 0.45-0.3 1.27-0.55 0.82-0.27 2.11-0.52zm3.93 3.27l1.06 0.3v0.4h-3.24v-0.4l1.06-0.3v-7.64q-0.09-0.07-0.27-0.17-0.18-0.11-0.43-0.21-0.23-0.12-0.5-0.22v-0.28l2.22-0.54h0.19l-0.09 1.2zm6.86-5.63q0.43 0 0.8 0.07 0.38 0.08 0.85 0.27l0.14 1.67h-0.52l-0.71-1.65 0.69 0.63q-0.34-0.19-0.66-0.28-0.32-0.09-0.64-0.09-0.63 0-0.98 0.22-0.34 0.23-0.34 0.65 0.01 0.38 0.22 0.59 0.23 0.21 0.58 0.34 0.37 0.13 0.79 0.26 0.32 0.09 0.63 0.22 0.32 0.12 0.57 0.32 0.27 0.2 0.42 0.52 0.16 0.32 0.16 0.81 0 0.61-0.31 1.04-0.31 0.43-0.88 0.65-0.57 0.22-1.36 0.22-0.45 0-0.88-0.07-0.44-0.07-0.78-0.21l-0.31-1.76h0.57l0.87 1.77-0.83-0.6q0.25 0.11 0.46 0.17 0.22 0.06 0.41 0.08 0.2 0.01 0.39 0.01 0.79 0 1.21-0.26 0.43-0.27 0.43-0.79 0-0.34-0.17-0.54-0.17-0.2-0.45-0.32-0.27-0.13-0.59-0.22-0.33-0.09-0.63-0.2-0.41-0.13-0.75-0.33-0.34-0.21-0.54-0.55-0.2-0.35-0.2-0.91 0-0.55 0.29-0.94 0.29-0.38 0.82-0.59 0.53-0.2 1.23-0.2zm5.91 6.47q-0.94 0-1.65-0.4-0.7-0.4-1.09-1.12-0.38-0.72-0.38-1.68 0-0.96 0.4-1.7 0.41-0.74 1.13-1.15 0.72-0.42 1.67-0.42 0.94 0 1.65 0.4 0.7 0.4 1.09 1.12 0.38 0.71 0.38 1.67 0 0.97-0.4 1.71-0.41 0.74-1.13 1.15-0.72 0.42-1.67 0.42zm0.02-0.71q0.61 0 1.04-0.25 0.44-0.25 0.68-0.77 0.24-0.53 0.24-1.34 0.01-0.89-0.23-1.49-0.22-0.6-0.65-0.9-0.43-0.31-1.04-0.31-0.6 0-1.05 0.25-0.43 0.25-0.68 0.78-0.24 0.52-0.24 1.34 0.01 0.88 0.23 1.48 0.23 0.6 0.66 0.91 0.43 0.3 1.04 0.3zm5.99-4.45v4.32l1.01 0.3v0.4h-3.2v-0.4l1.07-0.3v-4.1q-0.11-0.1-0.36-0.24-0.26-0.15-0.72-0.34v-0.21l1.74-0.75h0.19zm3.98 0.44v3.87l1.01 0.31v0.4h-3.14v-0.4l1.01-0.31v-3.41q0-0.4-0.16-0.65-0.15-0.25-0.44-0.38-0.3-0.12-0.73-0.12-0.46 0-0.9 0.14-0.44 0.15-0.7 0.37l-0.18-0.28q0.43-0.39 0.75-0.65 0.32-0.25 0.6-0.39 0.28-0.14 0.55-0.2 0.27-0.06 0.6-0.06 0.61 0 0.99 0.23 0.39 0.21 0.56 0.61 0.18 0.39 0.18 0.92zm3.97 0.28v3.59l1.08 0.31v0.4h-3.21v-0.4l1.02-0.31v-3.41q0-0.4-0.16-0.65-0.15-0.25-0.45-0.37-0.3-0.13-0.73-0.13-0.46 0-0.91 0.14-0.45 0.15-0.7 0.37l-0.19-0.27q0.44-0.4 0.76-0.65 0.33-0.26 0.61-0.4 0.28-0.14 0.55-0.2 0.27-0.06 0.59-0.06 0.92 0 1.33 0.53 0.41 0.52 0.41 1.51zm5.7 0.32l-0.04 0.64q-0.94 0.17-1.51 0.35-0.58 0.17-0.89 0.37-0.31 0.19-0.42 0.41-0.12 0.22-0.12 0.5 0 0.47 0.28 0.73 0.3 0.24 0.78 0.24 0.37 0 0.67-0.16 0.31-0.17 0.49-0.44 0.18-0.27 0.18-0.59v-2.44q0-0.59-0.28-0.9-0.28-0.32-0.96-0.32-0.29 0-0.58 0.06-0.3 0.05-0.57 0.15l0.41-0.37q-0.03 0.23-0.08 0.42-0.05 0.2-0.1 0.35-0.06 0.16-0.13 0.28-0.12 0.17-0.29 0.23-0.16 0.06-0.37 0.06-0.29-0.01-0.44-0.12-0.16-0.12-0.16-0.3 0-0.22 0.22-0.47 0.22-0.26 0.59-0.48 0.38-0.23 0.87-0.37 0.49-0.15 1.03-0.15 0.71 0 1.14 0.21 0.43 0.21 0.62 0.6 0.2 0.39 0.2 0.95v3.14q0 0.23 0.07 0.37 0.07 0.15 0.21 0.23 0.14 0.06 0.34 0.07 0.16-0.01 0.33-0.05 0.19-0.05 0.36-0.12v0.42q-0.3 0.3-0.63 0.45-0.34 0.14-0.63 0.14-0.36 0-0.62-0.17-0.26-0.17-0.4-0.5-0.13-0.33-0.14-0.81l0.05-0.05q-0.09 0.47-0.36 0.82-0.25 0.35-0.64 0.54-0.39 0.19-0.86 0.19-0.82 0-1.31-0.42-0.48-0.42-0.48-1.2 0-0.43 0.17-0.77 0.18-0.36 0.62-0.65 0.45-0.29 1.27-0.55 0.82-0.27 2.11-0.52zm3.82 2.17q0 0.51 0.29 0.74 0.3 0.23 0.88 0.23 0.26 0 0.56-0.04 0.31-0.06 0.66-0.16v0.41q-0.45 0.29-0.78 0.46-0.34 0.16-0.61 0.22-0.26 0.06-0.5 0.06-0.47 0-0.84-0.16-0.36-0.17-0.57-0.5-0.2-0.34-0.2-0.83v-3.85l-0.94-0.46v-0.24q0.24-0.12 0.44-0.22 0.2-0.12 0.37-0.24 0.17-0.12 0.32-0.25 0.15-0.13 0.29-0.28 0.15-0.16 0.3-0.34h0.33v1.28zm-0.43-3.62l0.02-0.77h2.62l-0.06 0.77zm4.6-2.65q-0.4 0-0.66-0.23-0.25-0.23-0.25-0.61 0-0.39 0.25-0.62 0.26-0.23 0.66-0.23 0.41 0 0.66 0.23 0.25 0.23 0.25 0.62 0 0.38-0.25 0.61-0.25 0.23-0.66 0.23zm0.72 1.74l-0.06 1.25v4.38l1.05 0.3v0.4h-3.24v-0.4l1.06-0.3v-4.2q-0.07-0.07-0.25-0.17-0.18-0.1-0.4-0.2-0.22-0.11-0.43-0.19v-0.29l2.04-0.58zm4.97 0q0.66 0 1.04 0.15 0.39 0.15 0.55 0.36 0.17 0.21 0.17 0.42 0 0.21-0.1 0.38-0.09 0.17-0.26 0.27-0.16 0.1-0.37 0.1-0.15 0-0.31-0.1-0.15-0.1-0.32-0.24-0.16-0.14-0.33-0.28-0.17-0.14-0.34-0.23-0.18-0.11-0.35-0.11-0.48 0-0.88 0.24-0.4 0.24-0.65 0.72-0.23 0.48-0.23 1.2 0 0.83 0.27 1.43 0.27 0.59 0.79 0.9 0.52 0.31 1.24 0.31 0.42 0 0.85-0.15 0.43-0.15 0.86-0.42l0.11 0.38q-0.37 0.37-0.76 0.63-0.39 0.25-0.79 0.38-0.41 0.13-0.83 0.13-0.85 0-1.5-0.39-0.64-0.38-1.01-1.08-0.36-0.7-0.36-1.63 0-0.74 0.24-1.35 0.24-0.62 0.68-1.07 0.45-0.46 1.1-0.7 0.66-0.25 1.49-0.25zm-74.64 17.31v4.32l1.01 0.3v0.4h-3.2v-0.4l1.07-0.3v-4.1q-0.11-0.1-0.37-0.24-0.25-0.15-0.71-0.34v-0.21l1.74-0.75h0.19zm3.98 0.44v3.87l1.01 0.31v0.4h-3.14v-0.4l1.01-0.31v-3.41q0-0.4-0.16-0.65-0.15-0.25-0.45-0.38-0.29-0.12-0.72-0.12-0.46 0-0.91 0.14-0.44 0.15-0.69 0.37l-0.19-0.28q0.44-0.39 0.76-0.65 0.32-0.25 0.6-0.39 0.28-0.14 0.55-0.2 0.27-0.06 0.6-0.06 0.61 0 0.99 0.23 0.39 0.21 0.56 0.61 0.18 0.39 0.18 0.92zm3.97 0.28v3.59l1.08 0.31v0.4h-3.21v-0.4l1.01-0.31v-3.41q0-0.4-0.15-0.65-0.16-0.25-0.45-0.37-0.3-0.13-0.73-0.13-0.46 0-0.91 0.14-0.45 0.15-0.7 0.37l-0.19-0.27q0.44-0.4 0.76-0.65 0.33-0.26 0.61-0.4 0.28-0.14 0.55-0.2 0.27-0.06 0.59-0.06 0.92 0 1.33 0.53 0.41 0.52 0.41 1.51zm5.7 0.32l-0.04 0.64q-0.94 0.17-1.51 0.35-0.58 0.17-0.89 0.37-0.31 0.19-0.42 0.41-0.12 0.22-0.12 0.5 0 0.47 0.28 0.73 0.29 0.24 0.78 0.24 0.37 0 0.67-0.16 0.31-0.17 0.49-0.44 0.18-0.27 0.18-0.59v-2.44q0-0.59-0.28-0.9-0.28-0.32-0.96-0.32-0.29 0-0.58 0.06-0.3 0.05-0.57 0.15l0.41-0.37q-0.03 0.23-0.08 0.42-0.05 0.2-0.1 0.35-0.06 0.16-0.13 0.28-0.12 0.17-0.29 0.23-0.17 0.06-0.37 0.06-0.29-0.01-0.44-0.12-0.16-0.12-0.16-0.3 0-0.22 0.22-0.47 0.22-0.26 0.59-0.48 0.38-0.23 0.87-0.37 0.49-0.15 1.03-0.15 0.71 0 1.14 0.21 0.43 0.21 0.62 0.6 0.2 0.39 0.2 0.95v3.14q0 0.23 0.07 0.37 0.07 0.15 0.21 0.23 0.14 0.06 0.34 0.07 0.16-0.01 0.33-0.05 0.18-0.05 0.36-0.12v0.42q-0.3 0.3-0.64 0.45-0.33 0.14-0.62 0.14-0.36 0-0.62-0.17-0.26-0.17-0.4-0.5-0.13-0.33-0.14-0.81l0.05-0.05q-0.09 0.47-0.36 0.82-0.25 0.35-0.65 0.54-0.38 0.19-0.85 0.19-0.82 0-1.31-0.42-0.48-0.42-0.48-1.2 0-0.43 0.17-0.77 0.17-0.36 0.62-0.65 0.45-0.29 1.27-0.55 0.82-0.27 2.11-0.52zm7.64 0.93q0-1.18-0.56-1.78-0.56-0.6-1.5-0.6-0.39 0-0.76 0.07-0.37 0.07-0.71 0.19-0.34 0.13-0.64 0.32v-0.57q0.44-0.25 0.81-0.43 0.37-0.17 0.69-0.28 0.32-0.11 0.58-0.16 0.27-0.05 0.5-0.05 0.92 0 1.55 0.37 0.64 0.36 0.96 1.03 0.34 0.66 0.34 1.55 0 1.09-0.45 1.88-0.44 0.79-1.18 1.22-0.74 0.42-1.64 0.42-0.44 0-0.83-0.13-0.38-0.15-0.71-0.38-0.32-0.24-0.57-0.55h0.4v3.52l1.2 0.29v0.4h-3.4v-0.4l1.08-0.3v-7.39q-0.09-0.08-0.24-0.17-0.16-0.09-0.38-0.19-0.21-0.11-0.46-0.22v-0.21l1.75-0.75h0.18l0.27 0.97v3.39q0 0.43 0.22 0.75 0.22 0.32 0.61 0.49 0.4 0.18 0.91 0.18 0.63 0 1.06-0.31 0.44-0.3 0.68-0.86 0.24-0.56 0.24-1.31zm7.63 0q-0.01-1.18-0.57-1.78-0.55-0.6-1.49-0.6-0.39 0-0.77 0.07-0.36 0.07-0.7 0.19-0.34 0.13-0.64 0.32v-0.57q0.44-0.25 0.81-0.43 0.37-0.17 0.69-0.28 0.32-0.11 0.58-0.16 0.27-0.05 0.5-0.05 0.92 0 1.55 0.37 0.64 0.36 0.96 1.03 0.33 0.66 0.33 1.55 0 1.09-0.44 1.88-0.44 0.79-1.18 1.22-0.74 0.42-1.64 0.42-0.44 0-0.83-0.13-0.39-0.15-0.71-0.38-0.33-0.24-0.57-0.55h0.39v3.52l1.21 0.29v0.4h-3.4v-0.4l1.08-0.3v-7.39q-0.09-0.08-0.25-0.17-0.15-0.09-0.37-0.19-0.21-0.11-0.46-0.22v-0.21l1.75-0.75h0.18l0.27 0.97v3.39q0 0.43 0.22 0.75 0.22 0.32 0.61 0.49 0.4 0.18 0.91 0.18 0.63 0 1.06-0.31 0.44-0.3 0.68-0.86 0.24-0.56 0.24-1.31zm3.43-5.02q-0.4-0.01-0.66-0.23-0.25-0.24-0.25-0.62 0-0.39 0.25-0.62 0.26-0.23 0.66-0.23 0.4 0 0.65 0.23 0.26 0.23 0.26 0.62 0 0.38-0.26 0.62-0.25 0.22-0.65 0.23zm0.72 1.73l-0.07 1.26v4.37l1.06 0.31v0.4h-3.24v-0.4l1.06-0.31v-4.2q-0.07-0.07-0.26-0.17-0.17-0.1-0.39-0.2-0.22-0.11-0.43-0.19v-0.28l2.04-0.59zm3.52 1.32v4.31l1.05 0.31v0.4h-3.24v-0.4l1.07-0.31v-4.1q-0.11-0.09-0.36-0.23-0.26-0.15-0.72-0.35v-0.21l1.75-0.75h0.19zm2.09 4.62l1.05-0.3v-3.32q0-0.4-0.16-0.68-0.16-0.28-0.48-0.42-0.32-0.14-0.81-0.14-0.52 0-1 0.16-0.48 0.16-0.74 0.38l-0.21-0.23q0.46-0.41 0.81-0.69 0.35-0.27 0.64-0.42 0.29-0.15 0.58-0.21 0.3-0.06 0.65-0.06 0.94 0 1.39 0.54 0.45 0.53 0.45 1.65v3.44l1.07 0.3v0.4h-3.24zm6.22 3.82q-0.75 0-1.32-0.11-0.57-0.11-0.95-0.32-0.37-0.21-0.55-0.51-0.18-0.3-0.18-0.69 0-0.28 0.14-0.53 0.14-0.25 0.44-0.46 0.32-0.21 0.8-0.36 0.48-0.16 1.17-0.24h0.42v0.15q-0.69 0.08-1.09 0.26-0.39 0.18-0.55 0.44-0.16 0.26-0.16 0.59 0 0.37 0.19 0.63 0.2 0.25 0.63 0.38 0.43 0.14 1.1 0.14 0.75 0 1.26-0.17 0.52-0.17 0.78-0.46 0.27-0.29 0.27-0.67 0-0.25-0.11-0.44-0.1-0.18-0.37-0.31-0.26-0.12-0.72-0.19-0.47-0.06-1.19-0.08-0.73-0.03-1.2-0.15-0.47-0.1-0.74-0.28-0.26-0.18-0.38-0.41-0.11-0.23-0.11-0.5 0-0.46 0.44-0.78 0.44-0.33 1.3-0.45l0.12 0.14q-0.38 0.04-0.57 0.19-0.19 0.16-0.19 0.45 0 0.16 0.06 0.29 0.06 0.13 0.26 0.22 0.2 0.09 0.61 0.15 0.4 0.06 1.09 0.08 0.68 0.03 1.2 0.14 0.53 0.1 0.88 0.31 0.36 0.2 0.54 0.52 0.18 0.33 0.18 0.79 0 0.63-0.41 1.13-0.41 0.51-1.2 0.81-0.77 0.3-1.89 0.3zm0.01-5.27q-0.76 0-1.35-0.28-0.58-0.28-0.91-0.78-0.33-0.51-0.33-1.18 0-0.67 0.33-1.18 0.33-0.51 0.91-0.79 0.59-0.27 1.35-0.27 0.56 0 1.03 0.16 0.47 0.15 0.81 0.45 0.35 0.3 0.53 0.71 0.19 0.41 0.19 0.92 0 0.67-0.32 1.18-0.33 0.51-0.91 0.78-0.58 0.28-1.33 0.28zm0.05-0.62q0.61 0 0.98-0.4 0.38-0.4 0.38-1.16 0-0.81-0.38-1.24-0.37-0.44-1.07-0.44-0.62 0-1.01 0.4-0.37 0.39-0.37 1.16 0 0.8 0.37 1.24 0.39 0.44 1.1 0.44zm0.91-3.25l-0.28-0.5q0.45 0.04 0.85 0.03 0.41-0.01 0.77-0.04 0.35-0.04 0.63-0.07 0.29-0.03 0.5-0.03 0.19 0 0.28 0.12 0.09 0.12 0.1 0.38-0.01 0.27-0.13 0.46-0.13 0.18-0.31 0.18-0.15 0-0.33-0.07-0.17-0.07-0.42-0.16-0.25-0.09-0.65-0.18-0.39-0.08-1.01-0.12z"/>
					<path fill-rule="evenodd" class="s2" d="m190.83 133.97c-12.56 0-22.71-10.15-22.71-22.71 0-12.56 10.15-22.71 22.71-22.71 12.56 0 22.71 10.15 22.71 22.71 0 12.56-10.15 22.71-22.71 22.71z"/>
					<path fill-rule="evenodd" class="s2" d="m190.83 128.17c-9.35 0-16.91-7.56-16.91-16.91 0-9.35 7.56-16.91 16.91-16.91 9.35 0 16.91 7.56 16.91 16.91 0 9.35-7.56 16.91-16.91 16.91z"/>
					<path class="s2" d="m190.96 105.76l0.35 0.35 0.36-0.35c1.69-1.69 4.42-1.69 6.11 0 1.69 1.69 1.69 4.42 0 6.11l-6.47 6.47-6.46-6.47c-1.69-1.69-1.69-4.42 0-6.11 1.69-1.69 4.42-1.69 6.11 0z"/>
					<path class="s2" d="m184.73 111.75h13.18"/>
					<path class="s2" d="m187.65 114.66h7.34"/>
					<path class="s3" d="m190.83 134.45v24.17"/>
					<path class="s4" d="m145.74 170.76q0-0.6-0.25-1.02-0.25-0.42-0.84-0.63-0.59-0.22-1.63-0.22h-2.16l0.06-0.8h2.63q1.26 0 2.03 0.34 0.76 0.34 1.1 0.93 0.35 0.59 0.35 1.34 0 0.78-0.35 1.4-0.35 0.62-1.1 0.99-0.74 0.36-1.94 0.36h-2.72l-0.06-0.79h2.85q0.61 0 1.06-0.2 0.46-0.21 0.71-0.63 0.26-0.43 0.26-1.07zm-3.83-2.67v8.49l1.17 0.34v0.43h-3.56v-0.43l1.16-0.34v-7.72l-1.16-0.33v-0.44zm8.16 2.92q0.82 0 1.36 0.35 0.55 0.35 0.84 1.02 0.29 0.66 0.33 1.61h-4.54v-0.62l3.77-0.1-0.44 0.23q-0.03-0.59-0.2-0.99-0.17-0.4-0.47-0.6-0.29-0.2-0.73-0.2-0.53 0-0.92 0.25-0.39 0.25-0.6 0.76-0.21 0.51-0.21 1.28 0 0.82 0.29 1.39 0.3 0.56 0.85 0.86 0.55 0.29 1.34 0.29 0.32 0 0.63-0.07 0.3-0.08 0.58-0.21 0.29-0.12 0.55-0.29l0.1 0.38q-0.37 0.37-0.78 0.63-0.41 0.25-0.83 0.37-0.43 0.13-0.87 0.13-0.88 0-1.55-0.38-0.67-0.39-1.06-1.1-0.38-0.71-0.38-1.66 0-0.96 0.36-1.71 0.36-0.75 1.01-1.18 0.67-0.43 1.57-0.44zm7.52 2.37l-0.04 0.63q-0.94 0.17-1.51 0.35-0.58 0.17-0.89 0.37-0.31 0.19-0.42 0.41-0.12 0.23-0.12 0.5 0 0.48 0.28 0.73 0.3 0.24 0.78 0.24 0.37 0 0.67-0.16 0.31-0.16 0.49-0.44 0.18-0.27 0.18-0.58v-2.45q0-0.59-0.28-0.9-0.28-0.31-0.96-0.31-0.29 0-0.58 0.05-0.29 0.05-0.57 0.16l0.41-0.38q-0.03 0.23-0.08 0.42-0.05 0.2-0.1 0.36-0.06 0.15-0.13 0.27-0.12 0.17-0.29 0.23-0.16 0.06-0.37 0.06-0.29 0-0.44-0.12-0.16-0.12-0.16-0.3 0-0.22 0.22-0.47 0.22-0.26 0.59-0.48 0.38-0.23 0.87-0.37 0.49-0.14 1.03-0.14 0.71 0 1.14 0.21 0.43 0.2 0.62 0.59 0.2 0.39 0.2 0.95v3.14q0 0.23 0.07 0.38 0.07 0.15 0.21 0.22 0.14 0.07 0.34 0.07 0.16 0 0.33-0.05 0.19-0.05 0.36-0.12v0.42q-0.3 0.3-0.64 0.45-0.33 0.14-0.62 0.14-0.36 0-0.62-0.17-0.26-0.17-0.4-0.5-0.13-0.33-0.14-0.81l0.05-0.05q-0.09 0.47-0.36 0.82-0.25 0.35-0.65 0.54-0.38 0.19-0.85 0.19-0.82 0-1.31-0.42-0.48-0.42-0.48-1.19 0-0.44 0.17-0.78 0.18-0.35 0.62-0.64 0.45-0.3 1.27-0.56 0.82-0.26 2.11-0.51zm5.43 0.56l0.12-0.39 2.74 3.08 0.87 0.32v0.4h-2.74v-0.4l0.49-0.26-2.15-2.43h-1.07v-0.71h1.3l1.75-1.73-0.92-0.26v-0.41h2.83v0.41l-0.9 0.25zm-1.51 2.7l1.05 0.31v0.4h-3.24v-0.4l1.06-0.31v-7.63q-0.08-0.08-0.27-0.18-0.18-0.1-0.42-0.21-0.24-0.11-0.5-0.22v-0.28l2.21-0.54h0.19l-0.08 1.2zm13.86-2.35q0-1.17-0.56-1.77-0.56-0.6-1.5-0.6-0.39 0-0.76 0.07-0.37 0.07-0.71 0.19-0.33 0.13-0.64 0.32v-0.57q0.44-0.25 0.81-0.43 0.38-0.18 0.69-0.28 0.32-0.11 0.59-0.16 0.27-0.05 0.49-0.05 0.93 0 1.56 0.37 0.63 0.36 0.96 1.03 0.33 0.66 0.33 1.55 0 1.09-0.45 1.88-0.44 0.79-1.18 1.21-0.73 0.43-1.63 0.43-0.45 0-0.84-0.13-0.38-0.15-0.7-0.38-0.33-0.24-0.58-0.55h0.4v3.52l1.2 0.29v0.4h-3.39v-0.4l1.07-0.3v-7.39q-0.09-0.08-0.24-0.17-0.16-0.09-0.37-0.19-0.22-0.11-0.47-0.22v-0.21l1.75-0.75h0.18l0.28 0.97v3.39q0 0.43 0.21 0.75 0.23 0.32 0.62 0.49 0.4 0.18 0.9 0.18 0.63 0 1.07-0.31 0.44-0.3 0.67-0.86 0.24-0.56 0.24-1.32zm4.95-3.28q0.82 0 1.36 0.35 0.55 0.34 0.84 1.01 0.29 0.67 0.34 1.62h-4.54l-0.01-0.62 3.77-0.1-0.43 0.23q-0.04-0.59-0.21-0.99-0.17-0.4-0.47-0.6-0.29-0.21-0.73-0.21-0.53 0-0.92 0.26-0.39 0.25-0.6 0.76-0.21 0.51-0.21 1.28 0 0.82 0.29 1.39 0.3 0.56 0.85 0.85 0.55 0.29 1.34 0.29 0.32 0 0.63-0.06 0.3-0.08 0.59-0.21 0.28-0.13 0.54-0.29l0.11 0.37q-0.38 0.38-0.79 0.63-0.41 0.25-0.83 0.38-0.43 0.13-0.87 0.13-0.88 0-1.55-0.39-0.67-0.39-1.06-1.09-0.38-0.71-0.38-1.67 0-0.96 0.36-1.7 0.36-0.75 1.02-1.18 0.66-0.44 1.56-0.44zm7.4 0.04q0.34 0 0.52 0.17 0.17 0.17 0.17 0.48 0 0.34-0.17 0.55-0.16 0.2-0.42 0.2-0.22 0-0.44-0.04-0.2-0.04-0.43-0.08-0.21-0.04-0.45-0.05-0.16 0.01-0.34 0.04-0.18 0.03-0.35 0.11-0.18 0.07-0.34 0.19l-0.17-0.24q0.46-0.38 0.83-0.63 0.36-0.26 0.65-0.41 0.29-0.16 0.52-0.23 0.23-0.06 0.42-0.06zm-2.07 1.28v4.31l1.14 0.31v0.4h-3.32v-0.4l1.07-0.31v-4.1q-0.09-0.08-0.25-0.17-0.16-0.09-0.38-0.19-0.2-0.11-0.46-0.22v-0.21l1.84-0.75h0.18zm4.4-0.4l-0.28 0.16-1.21-0.26v-0.3l1.31-0.44 0.28 0.06h2.87l-0.08 0.78zm0.84 4.72l1.2 0.3v0.4h-3.39v-0.4l1.07-0.3v-5.83q0-0.84 0.27-1.45 0.28-0.62 0.75-1.01 0.47-0.39 1.08-0.58 0.61-0.19 1.28-0.19 0.46 0 0.77 0.06 0.31 0.06 0.51 0.17 0.18 0.11 0.27 0.26 0.08 0.15 0.08 0.33 0 0.31-0.2 0.5-0.2 0.19-0.51 0.19-0.18 0-0.32-0.12-0.14-0.11-0.3-0.26-0.15-0.16-0.36-0.27-0.21-0.12-0.54-0.12-0.48 0-0.86 0.19-0.37 0.18-0.59 0.6-0.21 0.42-0.21 1.11zm5.39 0.83q-0.94 0-1.65-0.39-0.71-0.4-1.09-1.12-0.39-0.72-0.39-1.68 0-0.97 0.41-1.7 0.41-0.74 1.12-1.15 0.73-0.42 1.67-0.42 0.95 0 1.65 0.4 0.71 0.4 1.09 1.11 0.39 0.72 0.39 1.68 0 0.97-0.41 1.7-0.4 0.74-1.13 1.16-0.71 0.41-1.66 0.41zm0.02-0.7q0.6 0 1.04-0.25 0.44-0.26 0.68-0.78 0.24-0.52 0.24-1.34 0-0.88-0.23-1.48-0.22-0.6-0.65-0.91-0.43-0.3-1.05-0.3-0.6 0-1.04 0.25-0.44 0.25-0.68 0.78-0.24 0.52-0.24 1.34 0 0.88 0.22 1.48 0.24 0.6 0.67 0.91 0.43 0.3 1.04 0.3zm8.05-5.73q0.34 0 0.52 0.18 0.17 0.17 0.17 0.47 0 0.35-0.17 0.55-0.16 0.2-0.42 0.2-0.22 0-0.43-0.04-0.22-0.04-0.44-0.08-0.22-0.04-0.45-0.04-0.16 0-0.34 0.03-0.18 0.04-0.35 0.11-0.18 0.08-0.34 0.19l-0.18-0.24q0.47-0.38 0.84-0.63 0.36-0.25 0.65-0.41 0.29-0.15 0.52-0.22 0.23-0.07 0.42-0.07zm-2.07 1.28v4.32l1.14 0.3v0.4h-3.32v-0.4l1.07-0.3v-4.1q-0.09-0.08-0.25-0.17-0.16-0.1-0.38-0.2-0.21-0.11-0.46-0.22v-0.21l1.84-0.75h0.18zm5.2 0v4.32l1.01 0.3v0.4h-3.2v-0.4l1.07-0.3v-4.1q-0.11-0.09-0.36-0.24-0.26-0.15-0.72-0.34v-0.21l1.74-0.75h0.19zm3.98 0.44v3.87l1.01 0.31v0.4h-3.14v-0.4l1.01-0.31v-3.41q0-0.39-0.16-0.64-0.15-0.26-0.44-0.38-0.3-0.13-0.73-0.13-0.46 0-0.9 0.15-0.45 0.14-0.69 0.36l-0.19-0.28q0.43-0.39 0.75-0.65 0.32-0.25 0.6-0.39 0.28-0.14 0.55-0.19 0.27-0.06 0.6-0.07 0.61 0.01 0.99 0.23 0.39 0.21 0.56 0.61 0.18 0.39 0.18 0.92zm3.97 0.28v3.59l1.08 0.31v0.4h-3.21v-0.4l1.02-0.31v-3.41q-0.01-0.39-0.16-0.64-0.16-0.26-0.45-0.38-0.3-0.13-0.73-0.13-0.46 0-0.91 0.15-0.45 0.14-0.7 0.36l-0.19-0.27q0.44-0.4 0.76-0.65 0.33-0.26 0.61-0.4 0.28-0.14 0.55-0.19 0.27-0.06 0.59-0.07 0.92 0 1.33 0.53 0.41 0.52 0.41 1.51zm5.7 0.33l-0.04 0.63q-0.94 0.17-1.51 0.35-0.58 0.17-0.89 0.37-0.31 0.19-0.42 0.41-0.12 0.23-0.12 0.5 0 0.48 0.29 0.73 0.29 0.24 0.77 0.24 0.37 0 0.67-0.16 0.31-0.16 0.49-0.44 0.18-0.27 0.18-0.58v-2.45q0-0.59-0.28-0.9-0.28-0.31-0.96-0.31-0.29 0-0.58 0.05-0.3 0.05-0.57 0.16l0.41-0.38q-0.03 0.23-0.08 0.42-0.05 0.2-0.1 0.35-0.06 0.16-0.13 0.28-0.12 0.17-0.29 0.23-0.16 0.06-0.37 0.06-0.29 0-0.44-0.12-0.16-0.12-0.16-0.3 0-0.22 0.22-0.47 0.22-0.26 0.59-0.48 0.38-0.23 0.87-0.37 0.49-0.14 1.03-0.14 0.71 0 1.14 0.21 0.43 0.2 0.62 0.59 0.2 0.39 0.2 0.95v3.14q0 0.23 0.07 0.38 0.07 0.15 0.21 0.22 0.14 0.07 0.34 0.07 0.16 0 0.33-0.05 0.18-0.05 0.36-0.12v0.42q-0.3 0.3-0.63 0.45-0.34 0.14-0.63 0.14-0.36 0-0.62-0.17-0.26-0.17-0.4-0.5-0.13-0.33-0.14-0.81l0.05-0.05q-0.09 0.47-0.36 0.82-0.25 0.35-0.64 0.54-0.39 0.19-0.86 0.19-0.82 0-1.31-0.42-0.48-0.42-0.48-1.19 0-0.44 0.17-0.78 0.18-0.35 0.62-0.65 0.45-0.29 1.27-0.55 0.82-0.26 2.11-0.51zm4.08-1.05v4.31l1.05 0.31v0.4h-3.24v-0.4l1.07-0.31v-4.1q-0.11-0.09-0.36-0.23-0.26-0.15-0.72-0.35v-0.21l1.75-0.75h0.19zm2.09 4.62l1.05-0.3v-3.32q0-0.4-0.16-0.68-0.16-0.28-0.48-0.42-0.32-0.14-0.81-0.14-0.52 0-1 0.16-0.48 0.16-0.74 0.39l-0.21-0.23q0.46-0.42 0.81-0.69 0.35-0.28 0.64-0.43 0.29-0.15 0.58-0.21 0.3-0.06 0.65-0.06 0.94 0 1.39 0.54 0.45 0.54 0.45 1.65v3.44l1.07 0.3v0.4h-3.24zm7.11-5.93q0.67 0 1.04 0.15 0.39 0.15 0.55 0.36 0.17 0.21 0.17 0.42 0 0.21-0.09 0.38-0.09 0.17-0.26 0.27-0.16 0.1-0.38 0.1-0.14 0-0.3-0.1-0.16-0.1-0.32-0.24-0.16-0.14-0.33-0.28-0.17-0.14-0.35-0.24-0.17-0.1-0.35-0.1-0.48 0-0.88 0.24-0.4 0.24-0.64 0.72-0.24 0.48-0.24 1.2 0 0.83 0.27 1.43 0.28 0.59 0.79 0.9 0.52 0.31 1.25 0.31 0.42 0 0.84-0.15 0.44-0.15 0.87-0.42l0.1 0.38q-0.36 0.37-0.76 0.63-0.38 0.25-0.79 0.38-0.4 0.13-0.83 0.13-0.85 0-1.49-0.39-0.65-0.39-1.01-1.08-0.36-0.7-0.36-1.63 0-0.74 0.24-1.36 0.23-0.61 0.68-1.06 0.44-0.46 1.09-0.7 0.66-0.25 1.49-0.25zm5.25 0q0.82 0 1.36 0.34 0.55 0.35 0.84 1.02 0.29 0.66 0.34 1.61h-4.54l-0.01-0.62 3.77-0.1-0.43 0.23q-0.04-0.59-0.2-0.99-0.17-0.4-0.47-0.6-0.3-0.2-0.74-0.2-0.53 0-0.92 0.26-0.39 0.25-0.59 0.75-0.21 0.51-0.21 1.28 0 0.83 0.29 1.4 0.29 0.56 0.84 0.85 0.56 0.29 1.34 0.29 0.33 0 0.63-0.07 0.31-0.07 0.59-0.2 0.28-0.13 0.55-0.3l0.1 0.38q-0.38 0.37-0.79 0.63-0.4 0.25-0.83 0.38-0.42 0.13-0.86 0.13-0.88 0-1.56-0.39-0.67-0.39-1.06-1.1-0.37-0.71-0.37-1.66 0-0.96 0.35-1.7 0.36-0.76 1.02-1.19 0.66-0.43 1.56-0.43z"/>
					<path class="s3" d="m-35.8 111.26h78.28"/>
					<path class="s3" d="m88.87 111.26h78.28"/>
				</g>
				<path class="s4" d="m302.16 66.08l-2.4-0.81v-0.58h8.43v0.58l-2.73 0.78 7.04 10.21-0.9-0.02 5.74-10.16-2.72-0.81v-0.58h6.76v0.58l-2.45 0.83-6.47 10.72v8.3l2.63 0.8v0.58h-7.99v-0.58l2.61-0.8v-8.24zm23.65 20.74q-2.06 0-3.66-0.93-1.6-0.94-2.53-2.61-0.91-1.68-0.91-3.84 0-2.2 0.94-3.92 0.96-1.72 2.58-2.7 1.63-0.99 3.68-0.99 2.08 0 3.68 0.94 1.6 0.95 2.51 2.61 0.91 1.65 0.91 3.84 0 2.21-0.96 3.94-0.94 1.71-2.57 2.68-1.63 0.98-3.67 0.98zm0.08-1.09q1.3 0 2.26-0.65 0.98-0.68 1.52-2.04 0.54-1.36 0.54-3.42 0-2.19-0.54-3.68-0.53-1.49-1.5-2.24-0.98-0.77-2.34-0.77-1.28 0-2.26 0.66-0.97 0.65-1.52 2.01-0.54 1.36-0.54 3.44 0 2.16 0.53 3.67 0.54 1.49 1.52 2.25 0.99 0.77 2.33 0.77zm13.17-3.89q0 1.01 0.29 1.62 0.3 0.61 0.98 0.9 0.68 0.27 1.84 0.27 1.13 0 2.17-0.4 1.04-0.42 1.54-1.03l0.51 0.55q-0.91 0.88-1.66 1.47-0.76 0.59-1.43 0.94-0.67 0.36-1.36 0.5-0.67 0.16-1.45 0.16-2.02 0-2.98-1.23-0.94-1.23-0.94-3.76v-8.18l-2.42-0.85v-0.62l5.06-0.24-0.15 1.7zm6.64 4.96l-0.17-2.95v-10.21l-2.42-0.84v-0.63l5.09-0.24-0.16 1.7v10.78q0.14 0.15 0.4 0.29 0.25 0.14 0.56 0.29 0.32 0.14 0.62 0.25 0.32 0.12 0.58 0.16v0.45l-4.24 0.95zm15.14-14.88q0.8 0 1.17 0.4 0.39 0.38 0.39 1.02 0 0.75-0.48 1.22-0.48 0.46-1.28 0.46-0.35 0-0.72-0.13-0.36-0.13-0.76-0.24-0.38-0.13-0.84-0.13-0.4 0-0.85 0.13-0.43 0.13-0.87 0.35-0.41 0.21-0.76 0.5l-0.26-0.59q1.01-0.85 1.81-1.43 0.8-0.57 1.42-0.91 0.64-0.35 1.14-0.49 0.49-0.16 0.89-0.16zm-4.73 2.84v10.48l2.53 0.71v0.54h-7.41v-0.54l2.4-0.71v-10.28q-0.21-0.21-0.55-0.39-0.32-0.17-0.76-0.38-0.45-0.21-1.04-0.45v-0.37l4.44-1.58h0.28zm-42.4 39.72q0-2.85-1.25-4.32-1.25-1.49-3.38-1.49-0.92 0-1.76 0.18-0.83 0.16-1.56 0.51-0.74 0.35-1.41 0.93l-0.05-0.93q0.93-0.71 1.76-1.19 0.83-0.49 1.57-0.78 0.73-0.3 1.39-0.43 0.66-0.15 1.22-0.15 2.03 0 3.42 0.87 1.41 0.85 2.13 2.37 0.73 1.52 0.73 3.53 0 2.55-1.05 4.4-1.04 1.84-2.82 2.83-1.77 1-3.95 1-0.8 0-1.6-0.13-0.8-0.13-1.62-0.4-0.81-0.27-1.68-0.72h1.56v7.57l2.68 0.7v0.54h-7.58v-0.54l2.4-0.7v-18.18q-0.21-0.21-0.53-0.38-0.32-0.18-0.78-0.39-0.45-0.21-1.04-0.45v-0.36l4.22-1.59h0.27l0.36 2.13v8.5q0 0.91 0.48 1.64 0.49 0.74 1.37 1.16 0.88 0.41 2.05 0.41 1.41 0 2.4-0.73 0.99-0.74 1.52-2.12 0.53-1.39 0.53-3.29zm11.64-7.67q1.58 0 2.73 0.71 1.17 0.69 1.86 2.01 0.7 1.33 0.86 3.25h-10l0.03-1.04 8.37-0.27-1.12 0.66q-0.13-1.3-0.49-2.23-0.36-0.94-0.98-1.44-0.62-0.49-1.57-0.49-1.17 0-2.05 0.65-0.86 0.64-1.34 1.89-0.46 1.25-0.46 3.04 0 2.02 0.68 3.41 0.71 1.39 1.97 2.11 1.27 0.72 2.99 0.72 0.69 0 1.33-0.18 0.66-0.19 1.28-0.54 0.63-0.37 1.15-0.9l0.37 0.37q-0.85 1.15-1.73 1.87-0.88 0.72-1.85 1.06-0.96 0.34-2.1 0.34-1.9 0-3.42-0.92-1.51-0.91-2.37-2.54-0.86-1.65-0.86-3.82 0-2.12 0.8-3.86 0.8-1.76 2.3-2.8 1.52-1.06 3.62-1.06zm16.66 0.1q0.8 0 1.16 0.4 0.39 0.38 0.39 1.02 0 0.76-0.48 1.22-0.48 0.46-1.28 0.46-0.35 0-0.72-0.12-0.35-0.13-0.75-0.24-0.39-0.13-0.85-0.13-0.4 0-0.85 0.13-0.43 0.12-0.86 0.35-0.42 0.21-0.77 0.49l-0.26-0.59q1.01-0.85 1.81-1.42 0.8-0.58 1.42-0.91 0.64-0.36 1.14-0.5 0.5-0.16 0.9-0.16zm-4.74 2.85v10.48l2.53 0.7v0.55h-7.41v-0.55l2.4-0.7v-10.29q-0.21-0.21-0.54-0.38-0.32-0.18-0.77-0.39-0.45-0.21-1.04-0.45v-0.36l4.45-1.59h0.27zm12.43-2.94q0.94 0 1.71 0.19 0.77 0.19 1.7 0.66l0.3 3.93h-0.62l-1.7-4.01 1.12 1.37q-0.65-0.59-1.25-0.85-0.59-0.27-1.34-0.27-1.25 0-1.97 0.56-0.7 0.55-0.7 1.57 0 0.75 0.38 1.26 0.39 0.52 1.11 0.93 0.73 0.4 1.77 0.85 0.77 0.32 1.43 0.72 0.65 0.4 1.12 0.93 0.48 0.51 0.75 1.2 0.27 0.69 0.27 1.6 0 1.36-0.7 2.33-0.69 0.98-1.88 1.51-1.18 0.51-2.65 0.51-1.01 0-1.81-0.16-0.78-0.16-1.55-0.51l-0.77-4.16h0.7l2.28 4.29-1.65-1.14q0.56 0.29 0.97 0.45 0.42 0.16 0.79 0.22 0.38 0.05 0.77 0.05 1.48 0 2.41-0.66 0.95-0.65 0.95-1.96 0-0.64-0.29-1.11-0.27-0.48-0.79-0.83-0.49-0.37-1.15-0.67-0.64-0.32-1.36-0.64-0.97-0.45-1.68-1.01-0.7-0.56-1.09-1.34-0.36-0.79-0.36-1.89 0-1.25 0.62-2.11 0.64-0.88 1.73-1.35 1.09-0.46 2.43-0.46zm13.36 14.99q-2.06 0-3.66-0.93-1.6-0.94-2.53-2.61-0.91-1.68-0.91-3.84 0-2.2 0.94-3.92 0.96-1.72 2.58-2.7 1.63-0.99 3.68-0.99 2.08 0 3.68 0.94 1.6 0.95 2.51 2.61 0.91 1.65 0.91 3.84 0 2.21-0.96 3.94-0.94 1.71-2.57 2.68-1.63 0.98-3.67 0.98zm0.08-1.09q1.3 0 2.26-0.65 0.98-0.68 1.52-2.04 0.54-1.36 0.54-3.42 0-2.19-0.54-3.68-0.53-1.49-1.5-2.24-0.98-0.77-2.34-0.77-1.28 0-2.26 0.66-0.97 0.65-1.52 2.01-0.54 1.36-0.54 3.44 0 2.16 0.53 3.67 0.54 1.49 1.52 2.25 0.99 0.77 2.33 0.77zm13.64-10.96v10.48l2.43 0.71v0.54h-7.31v-0.54l2.4-0.71v-10.29q-0.26-0.24-0.77-0.51-0.5-0.27-1.59-0.7v-0.37l4.23-1.58h0.25zm4.61 11.18l2.43-0.7v-8.28q0-0.91-0.36-1.56-0.37-0.66-1.11-1.01-0.73-0.35-1.82-0.35-1.27 0-2.37 0.44-1.09 0.44-1.58 1.03l-0.52-0.48q0.95-0.91 1.75-1.52 0.8-0.63 1.52-0.99 0.73-0.37 1.47-0.53 0.74-0.18 1.55-0.18 2.05 0 3.01 1.25 0.96 1.25 0.96 3.94v8.24l2.42 0.7v0.54h-7.35zm17.38-8.65l0.22 1.01q-1.98 0.49-3.23 0.99-1.24 0.49-1.93 1.01-0.69 0.49-0.96 1.07-0.26 0.56-0.26 1.25 0 1.16 0.69 1.77 0.69 0.61 1.66 0.61 0.8 0 1.44-0.38 0.64-0.39 1.03-1.03 0.38-0.64 0.38-1.44v-6.16q0-1.28-0.66-2.01-0.64-0.74-2.08-0.74-0.55 0-1.23 0.14-0.65 0.15-1.21 0.44l0.81-0.71q-0.05 0.48-0.14 0.98-0.08 0.49-0.21 0.89-0.13 0.39-0.32 0.6-0.24 0.27-0.64 0.4-0.38 0.12-0.78 0.12-0.51 0-0.82-0.22-0.3-0.24-0.3-0.62 0-0.55 0.52-1.12 0.53-0.58 1.38-1.08 0.87-0.51 1.9-0.81 1.04-0.32 2.08-0.32 1.51 0 2.42 0.45 0.93 0.44 1.34 1.31 0.42 0.86 0.42 2.08v7.87q0 0.51 0.14 0.83 0.17 0.32 0.45 0.5 0.29 0.16 0.71 0.16 0.4 0 0.84-0.15 0.47-0.16 0.92-0.44v0.65q-0.8 0.9-1.59 1.25-0.77 0.35-1.47 0.35-0.82 0-1.38-0.37-0.54-0.36-0.81-1.05-0.27-0.69-0.29-1.63l0.1-0.12q-0.23 0.93-0.82 1.65-0.58 0.72-1.39 1.14-0.8 0.4-1.73 0.4-1.71 0-2.83-0.93-1.11-0.94-1.11-2.72 0-0.93 0.36-1.68 0.36-0.77 1.31-1.42 0.94-0.68 2.65-1.35 1.72-0.67 4.42-1.42zm9.49 7.95l2.42 0.7v0.55h-7.31v-0.55l2.4-0.7v-18.64q-0.21-0.22-0.56-0.45-0.35-0.24-0.85-0.49-0.48-0.26-1.1-0.52v-0.32l4.86-1.31h0.26l-0.12 2.63zm6.86-17.73q-0.88 0-1.44-0.59-0.54-0.6-0.54-1.41 0-0.8 0.54-1.36 0.56-0.58 1.44-0.58 0.9 0 1.42 0.58 0.55 0.56 0.55 1.36 0 0.81-0.55 1.41-0.52 0.59-1.42 0.59zm1.5 4.27l-0.06 2.72v10.74l2.43 0.7v0.54h-7.33v-0.54l2.4-0.7v-10.44q-0.17-0.17-0.54-0.4-0.37-0.24-0.85-0.48-0.46-0.24-0.96-0.41v-0.45l4.69-1.28zm3.57 14.7v-0.36l8.64-13.44 0.69 0.6-7.92 0.08 1.44-0.8-2.13 4.2h-0.64l0.73-5.16h0.45l1.12 0.53h9.11v0.37l-8.69 13.46-0.58-0.61 7.43-0.11-0.92 0.76 2.48-4.28h0.69l-1.15 4.76zm20.15-14.67q1.59 0 2.74 0.71 1.17 0.68 1.86 2.01 0.7 1.33 0.86 3.25h-10l0.03-1.04 8.37-0.27-1.12 0.65q-0.13-1.29-0.5-2.22-0.35-0.94-0.97-1.44-0.63-0.5-1.57-0.5-1.17 0-2.05 0.66-0.86 0.64-1.34 1.89-0.46 1.25-0.47 3.04 0 2.01 0.69 3.41 0.71 1.39 1.97 2.11 1.27 0.72 2.99 0.72 0.69 0 1.33-0.18 0.66-0.19 1.28-0.54 0.62-0.37 1.15-0.9l0.37 0.37q-0.85 1.15-1.73 1.87-0.88 0.72-1.85 1.06-0.96 0.33-2.1 0.33-1.9 0-3.42-0.91-1.51-0.91-2.37-2.54-0.87-1.65-0.87-3.83 0.01-2.11 0.8-3.85 0.8-1.76 2.31-2.8 1.52-1.06 3.61-1.06zm18.65 4.42q0-1.39-1.01-2.31-0.99-0.92-2.77-0.92-1.47 0-2.49 0.75-1.03 0.73-1.56 2.11-0.52 1.36-0.52 3.28 0 1.9 0.56 3.2 0.56 1.3 1.6 1.95 1.04 0.66 2.46 0.66 1.27 0 2.4-0.4 1.14-0.42 2.21-1.33l0.06 0.93q-1.12 0.8-1.93 1.33-0.82 0.52-1.48 0.81-0.64 0.29-1.21 0.4-0.56 0.11-1.15 0.11-2.04 0-3.46-0.84-1.41-0.87-2.14-2.39-0.74-1.53-0.74-3.53 0-1.94 0.61-3.46 0.61-1.52 1.68-2.58 1.09-1.07 2.49-1.63 1.43-0.56 3.04-0.56 0.82 0 1.6 0.15 0.8 0.12 1.62 0.4 0.82 0.25 1.68 0.7l-1.55 0.8v-7.6q-0.19-0.19-0.53-0.4-0.34-0.21-0.77-0.42-0.43-0.22-0.89-0.41v-0.29l4.6-1.23h0.24l-0.16 2.56v18.33q0.15 0.15 0.4 0.29 0.28 0.15 0.58 0.29 0.32 0.14 0.62 0.26 0.31 0.11 0.56 0.16v0.44l-4.22 0.95h-0.26l-0.17-2.39zm-149.04 44.72l2.43-0.71v-8.27q0-0.91-0.36-1.57-0.37-0.65-1.11-1.01-0.73-0.35-1.82-0.35-1.27 0-2.37 0.45-1.09 0.43-1.58 1.02l-0.52-0.48q0.95-0.91 1.75-1.52 0.8-0.62 1.52-0.99 0.73-0.37 1.47-0.53 0.74-0.17 1.55-0.17 2.05 0 3.01 1.25 0.96 1.24 0.96 3.93v8.24l2.42 0.71v0.54h-7.35zm-2.17 0.54h-7.32v-0.54l2.4-0.7v-18.64q-0.2-0.23-0.56-0.45-0.35-0.24-0.84-0.5-0.48-0.25-1.11-0.51v-0.32l4.87-1.31h0.25l-0.11 4.48v17.25l2.42 0.7zm17.41-14.67q1.59 0 2.74 0.7 1.17 0.69 1.86 2.02 0.7 1.33 0.86 3.25h-10l0.03-1.04 8.37-0.28-1.12 0.66q-0.13-1.3-0.5-2.22-0.35-0.95-0.97-1.44-0.63-0.5-1.57-0.5-1.17 0-2.05 0.66-0.86 0.64-1.34 1.88-0.47 1.25-0.47 3.04 0 2.02 0.69 3.41 0.71 1.39 1.97 2.11 1.26 0.72 2.99 0.72 0.69 0 1.33-0.17 0.66-0.19 1.28-0.55 0.62-0.36 1.15-0.89l0.37 0.37q-0.85 1.15-1.73 1.87-0.88 0.72-1.85 1.05-0.96 0.34-2.1 0.34-1.9 0-3.42-0.91-1.51-0.91-2.37-2.55-0.87-1.64-0.87-3.82 0-2.11 0.8-3.86 0.8-1.76 2.31-2.8 1.52-1.05 3.61-1.05zm16.33 5.47l0.22 1.01q-1.98 0.49-3.23 0.99-1.25 0.5-1.94 1.01-0.68 0.49-0.96 1.07-0.25 0.56-0.25 1.25 0 1.17 0.69 1.77 0.68 0.61 1.66 0.61 0.8 0 1.44-0.38 0.64-0.39 1.02-1.03 0.39-0.64 0.39-1.44v-6.16q0-1.28-0.66-2.01-0.64-0.74-2.08-0.74-0.56 0-1.23 0.15-0.66 0.14-1.22 0.43l0.82-0.71q-0.05 0.48-0.14 0.98-0.08 0.5-0.21 0.9-0.13 0.38-0.32 0.59-0.24 0.27-0.64 0.4-0.39 0.13-0.79 0.13-0.51 0-0.81-0.23-0.31-0.24-0.31-0.62 0-0.55 0.53-1.12 0.53-0.58 1.38-1.07 0.86-0.52 1.9-0.82 1.04-0.32 2.08-0.32 1.51 0 2.42 0.45 0.92 0.45 1.34 1.31 0.42 0.86 0.42 2.08v7.87q0 0.51 0.14 0.83 0.16 0.32 0.45 0.5 0.29 0.16 0.7 0.16 0.4 0 0.85-0.14 0.47-0.16 0.91-0.45v0.65q-0.8 0.9-1.58 1.25-0.77 0.35-1.47 0.35-0.82 0-1.38-0.36-0.54-0.37-0.81-1.06-0.28-0.69-0.29-1.63l0.09-0.11q-0.22 0.92-0.81 1.64-0.58 0.72-1.39 1.14-0.81 0.4-1.73 0.4-1.72 0-2.83-0.93-1.11-0.94-1.11-2.72 0-0.93 0.35-1.68 0.37-0.77 1.32-1.42 0.94-0.67 2.65-1.35 1.71-0.67 4.42-1.42zm9.49 7.95l2.42 0.71v0.54h-7.32v-0.54l2.4-0.71v-18.64q-0.2-0.22-0.56-0.45-0.35-0.24-0.84-0.49-0.48-0.26-1.11-0.51v-0.32l4.87-1.32h0.25l-0.11 2.63zm7.67-2.69q0 1.1 0.67 1.66 0.68 0.55 1.88 0.55 0.59 0 1.28-0.11 0.68-0.12 1.52-0.37v0.67q-1.08 0.72-1.83 1.12-0.75 0.38-1.34 0.53-0.58 0.16-1.17 0.16-1.02 0-1.82-0.39-0.79-0.4-1.24-1.21-0.44-0.82-0.44-2.05v-8.83l-1.81-1.22v-0.27q0.3-0.22 0.64-0.46 0.34-0.26 0.7-0.53 0.39-0.27 0.79-0.58 0.41-0.3 0.84-0.62 0.45-0.34 0.92-0.67h0.41v2.72zm-0.94-8.87v-1.55h5.82l-0.25 1.55zm16.11 12.26l2.43-0.71v-8.27q0-0.91-0.37-1.57-0.36-0.65-1.1-1-0.74-0.36-1.82-0.36-1.27 0-2.37 0.45-1.09 0.43-1.59 1.03l-0.51-0.48q0.95-0.92 1.75-1.52 0.8-0.63 1.52-1 0.73-0.36 1.47-0.52 0.73-0.18 1.55-0.18 2.05 0 3.01 1.25 0.96 1.25 0.96 3.93v8.24l2.41 0.71v0.54h-7.34zm-2.18 0.55h-7.31v-0.55l2.4-0.7v-18.64q-0.21-0.23-0.56-0.45-0.35-0.24-0.85-0.5-0.48-0.25-1.1-0.51v-0.32l4.86-1.31h0.26l-0.11 4.48v17.25l2.41 0.7zm30.08-7.01q0-2.84-1.25-4.32-1.24-1.48-3.37-1.48-0.93 0-1.76 0.17-0.83 0.16-1.57 0.51-0.74 0.36-1.41 0.93l-0.05-0.93q0.93-0.7 1.76-1.18 0.84-0.5 1.57-0.78 0.74-0.31 1.39-0.44 0.66-0.14 1.22-0.14 2.03 0 3.42 0.86 1.41 0.85 2.13 2.37 0.74 1.52 0.74 3.54 0 2.54-1.06 4.4-1.04 1.84-2.82 2.83-1.77 0.99-3.95 0.99-0.8 0-1.6-0.13-0.8-0.12-1.61-0.4-0.82-0.27-1.68-0.72h1.55v7.57l2.69 0.71v0.54h-7.59v-0.54l2.4-0.71v-18.17q-0.2-0.21-0.53-0.39-0.31-0.17-0.78-0.38-0.45-0.21-1.04-0.45v-0.37l4.22-1.58h0.28l0.35 2.13v8.49q0 0.91 0.48 1.65 0.5 0.74 1.37 1.15 0.89 0.42 2.05 0.42 1.41 0 2.4-0.74 1-0.73 1.52-2.11 0.53-1.39 0.53-3.3zm9.13 5.76l2.41 0.71v0.54h-7.31v-0.54l2.4-0.71v-18.64q-0.21-0.22-0.56-0.44-0.35-0.24-0.85-0.5-0.48-0.26-1.1-0.51v-0.32l4.86-1.31h0.26l-0.11 2.62zm12.65-7.95l0.22 1.01q-1.98 0.49-3.23 0.99-1.25 0.49-1.94 1.01-0.69 0.49-0.96 1.07-0.25 0.56-0.25 1.25 0 1.16 0.68 1.77 0.69 0.61 1.67 0.61 0.8 0 1.44-0.38 0.64-0.39 1.02-1.03 0.39-0.64 0.39-1.44v-6.16q0-1.28-0.66-2.01-0.64-0.74-2.08-0.74-0.56 0-1.23 0.14-0.66 0.15-1.22 0.44l0.82-0.71q-0.05 0.48-0.15 0.98-0.08 0.49-0.2 0.89-0.13 0.39-0.32 0.6-0.24 0.27-0.64 0.4-0.39 0.12-0.79 0.12-0.51 0-0.81-0.22-0.31-0.24-0.31-0.62 0-0.55 0.53-1.12 0.53-0.58 1.38-1.08 0.86-0.51 1.9-0.81 1.04-0.32 2.08-0.32 1.5 0 2.42 0.45 0.92 0.44 1.34 1.31 0.42 0.86 0.42 2.08v7.87q0 0.51 0.14 0.83 0.16 0.32 0.45 0.5 0.29 0.16 0.7 0.16 0.4 0 0.85-0.15 0.46-0.16 0.91-0.44v0.65q-0.8 0.9-1.58 1.25-0.77 0.35-1.47 0.35-0.82 0-1.38-0.37-0.54-0.36-0.82-1.05-0.27-0.69-0.28-1.63l0.09-0.12q-0.22 0.93-0.81 1.65-0.58 0.72-1.4 1.14-0.8 0.4-1.72 0.4-1.72 0-2.84-0.93-1.1-0.94-1.1-2.72 0-0.93 0.35-1.68 0.37-0.77 1.31-1.42 0.95-0.68 2.66-1.35 1.71-0.67 4.42-1.42zm9.74-2.53v10.48l2.44 0.7v0.55h-7.32v-0.55l2.4-0.7v-10.29q-0.25-0.24-0.76-0.51-0.5-0.27-1.59-0.7v-0.37l4.23-1.59h0.25zm4.61 11.19l2.43-0.71v-8.27q0-0.91-0.37-1.57-0.36-0.65-1.1-1-0.74-0.36-1.82-0.36-1.27 0-2.37 0.45-1.09 0.43-1.59 1.03l-0.51-0.48q0.95-0.92 1.75-1.52 0.8-0.63 1.52-1 0.73-0.36 1.47-0.52 0.73-0.18 1.55-0.18 2.05 0 3.01 1.25 0.96 1.25 0.96 3.93v8.24l2.41 0.71v0.54h-7.34z"/>
				<path class="s4" d="m301.47 196.5v-11.36h1.38v10.02h5.68v1.34zm8.74-9.81v-1.57h1.4v1.57zm0.04 9.81v-8.48h1.34v8.48zm4.42 0v-7.3h-1.15v-1.18h1.15v-0.77c0-1.25 0.7-2.11 2.24-2.11h1.34v1.18h-1.25c-0.67 0-0.99 0.39-0.99 1.03v0.67h2.13v1.18h-2.13v7.3zm8.1 0.19c-2.4 0-3.89-1.74-3.89-4.43 0-2.69 1.49-4.43 3.83-4.43 2.2 0 3.74 1.6 3.74 4.45v0.4h-6.16c0.1 1.82 1.01 2.73 2.48 2.73 1.1 0 1.82-0.56 2.11-1.42l1.44 0.11c-0.45 1.52-1.76 2.59-3.55 2.59zm-2.48-5.2h4.69c-0.13-1.63-1.03-2.38-2.27-2.38-1.32 0-2.2 0.81-2.42 2.38zm10.94 5.2c-2.28 0-3.54-1.2-3.67-2.86l1.41-0.1c0.16 1.03 0.82 1.68 2.26 1.68 1.15 0 1.9-0.35 1.9-1.18 0-0.67-0.34-0.96-2.16-1.28-2.43-0.43-3.2-1.19-3.2-2.53 0-1.5 1.15-2.59 3.2-2.59 2.06 0 3.15 1.25 3.41 2.72l-1.41 0.09c-0.19-0.89-0.86-1.53-2.02-1.53-1.21 0-1.77 0.53-1.77 1.25 0 0.83 0.54 1.15 2.05 1.4 2.59 0.45 3.31 1.12 3.31 2.47 0 1.57-1.44 2.46-3.31 2.46zm7.64-0.19c-1.53 0-2.25-0.67-2.25-2.18v-5.12h-1.25v-1.18h1.25v-1.98h1.34v1.98h2.26v1.18h-2.26v5.09c0 0.77 0.34 1.03 1.04 1.03h1.22v1.18zm3.26 2.4v-1.18h0.97c0.59 0 0.83-0.18 0.99-0.58l0.31-0.8h-0.47l-3.1-8.32h1.47l2.53 7.07 2.41-7.07h1.48l-3.44 9.55c-0.32 0.91-0.92 1.33-2.05 1.33zm9.57-2.4c-0.99 0-1.67-0.48-1.67-1.6v-9.76h1.35v9.65q0 0.53 0.53 0.53h0.73v1.18zm5.75 0.19c-2.4 0-3.88-1.74-3.88-4.43 0-2.69 1.48-4.43 3.82-4.43 2.21 0 3.74 1.6 3.74 4.45v0.4h-6.16c0.1 1.82 1.01 2.73 2.48 2.73 1.11 0 1.83-0.56 2.12-1.42l1.43 0.11c-0.44 1.52-1.75 2.59-3.55 2.59zm-2.48-5.2h4.69c-0.13-1.63-1.02-2.38-2.27-2.38-1.31 0-2.19 0.81-2.42 2.38zm7.4 7.51l0.77-2.5h-0.82v-1.81h1.81v1.59l-0.96 2.72zm10.21-2.31c-2.21 0-3.58-1.71-3.58-4.43 0-2.72 1.37-4.43 3.58-4.43 1.14 0 2.14 0.51 2.61 1.37v-4.06h1.34v11.36h-1.21l-0.05-1.28c-0.48 0.93-1.51 1.47-2.69 1.47zm0.27-1.28c1.51 0 2.34-1.21 2.34-3.15 0-1.97-0.83-3.15-2.34-3.15-1.49 0-2.45 1.18-2.45 3.15 0 1.94 0.96 3.15 2.45 3.15zm5.48-8.72v-1.57h1.41v1.57zm0.03 9.81v-8.48h1.34v8.48zm6.95 0.19c-2.4 0-3.89-1.74-3.89-4.43 0-2.69 1.49-4.43 3.82-4.43 2.21 0 3.75 1.6 3.75 4.45v0.4h-6.16c0.09 1.82 1.01 2.73 2.48 2.73 1.1 0 1.82-0.56 2.11-1.42l1.44 0.11c-0.45 1.52-1.76 2.59-3.55 2.59zm-2.48-5.2h4.69c-0.13-1.63-1.03-2.38-2.28-2.38-1.31 0-2.19 0.81-2.41 2.38zm10.5 5.01c-1.54 0-2.26-0.67-2.26-2.18v-5.12h-1.25v-1.18h1.25v-1.98h1.34v1.98h2.26v1.18h-2.26v5.09c0 0.77 0.34 1.03 1.04 1.03h1.22v1.18zm2.81 2.5l0.77-2.5h-0.81v-1.81h1.8v1.59l-0.96 2.72zm10.29-2.31c-2.27 0-3.53-1.2-3.66-2.86l1.41-0.1c0.16 1.03 0.81 1.68 2.25 1.68 1.15 0 1.91-0.35 1.91-1.18 0-0.67-0.34-0.96-2.16-1.28-2.44-0.43-3.2-1.19-3.2-2.53 0-1.5 1.15-2.59 3.2-2.59 2.06 0 3.15 1.25 3.4 2.72l-1.4 0.09c-0.2-0.89-0.87-1.53-2.02-1.53-1.22 0-1.78 0.53-1.78 1.25 0 0.83 0.55 1.15 2.05 1.4 2.59 0.45 3.31 1.12 3.31 2.47 0 1.57-1.44 2.46-3.31 2.46zm7.66 0c-1.7 0-2.78-1.2-2.78-3.21v-5.46h1.34v5.09c0 1.65 0.58 2.4 1.79 2.4 1.35 0 2.16-0.91 2.16-2.43v-5.06h1.35v8.48h-1.28v-1.38c-0.47 1.01-1.36 1.57-2.58 1.57zm6.1 2.21v-10.88h1.25l0.01 1.3c0.51-0.98 1.46-1.49 2.61-1.49 2.53 0 3.66 2.09 3.66 4.43 0 2.34-1.13 4.43-3.66 4.43-1.1 0-2.08-0.49-2.53-1.31v3.52zm3.75-3.49c1.47 0 2.38-1.17 2.38-3.15 0-1.98-0.91-3.15-2.38-3.15-1.48 0-2.4 1.07-2.4 3.15 0 2.08 0.91 3.15 2.4 3.15zm5.42 3.49v-10.88h1.24l0.02 1.3c0.51-0.98 1.46-1.49 2.61-1.49 2.53 0 3.66 2.09 3.66 4.43 0 2.34-1.13 4.43-3.66 4.43-1.11 0-2.08-0.49-2.53-1.31v3.52zm3.74-3.49c1.48 0 2.39-1.17 2.39-3.15 0-1.98-0.91-3.15-2.39-3.15-1.47 0-2.4 1.07-2.4 3.15 0 2.08 0.92 3.15 2.4 3.15zm7.09 1.09c-0.99 0-1.67-0.48-1.67-1.6v-9.76h1.35v9.65q0 0.53 0.53 0.53h0.73v1.18zm5.75 0.19c-2.4 0-3.88-1.74-3.88-4.43 0-2.69 1.48-4.43 3.82-4.43 2.21 0 3.74 1.6 3.74 4.45v0.4h-6.16c0.1 1.82 1.01 2.73 2.48 2.73 1.11 0 1.83-0.56 2.12-1.42l1.44 0.11c-0.45 1.52-1.76 2.59-3.56 2.59zm-2.48-5.2h4.69c-0.13-1.63-1.02-2.38-2.27-2.38-1.31 0-2.19 0.81-2.42 2.38zm7.8 5.01v-8.48h1.24l0.03 1.49c0.41-1.04 1.29-1.68 2.38-1.68 1.28 0 2.18 0.64 2.55 1.77 0.36-1.13 1.23-1.77 2.48-1.77 1.8 0 2.8 1.17 2.8 3.21v5.46h-1.35v-5.17q-0.01-2.31-1.77-2.32c-1.19 0-1.96 0.9-1.96 2.42v5.07h-1.34v-5.07c0-1.51-0.5-2.42-1.74-2.42-1.19 0-1.97 0.91-1.97 2.42v5.07zm16.83 0.19c-2.4 0-3.88-1.74-3.88-4.43 0-2.69 1.48-4.43 3.82-4.43 2.21 0 3.74 1.6 3.74 4.45v0.4h-6.16c0.1 1.82 1.01 2.73 2.48 2.73 1.11 0 1.83-0.56 2.12-1.42l1.44 0.11c-0.45 1.52-1.76 2.59-3.56 2.59zm-2.48-5.2h4.69c-0.13-1.63-1.02-2.38-2.27-2.38-1.31 0-2.19 0.81-2.42 2.38zm7.8 5.01v-8.48h1.24l0.03 1.52c0.45-1.17 1.44-1.71 2.61-1.71 1.93 0 2.86 1.42 2.86 3.21v5.46h-1.34v-5.07c0-1.57-0.53-2.42-1.81-2.42-1.31 0-2.24 0.85-2.24 2.42v5.07zm11.6 0c-1.54 0-2.26-0.67-2.26-2.18v-5.12h-1.25v-1.18h1.25v-1.98h1.34v1.98h2.26v1.18h-2.26v5.09c0 0.77 0.34 1.03 1.04 1.03h1.22v1.18zm9.45 0.26c-2.18 0-3.52-1.09-3.52-3.04 0-1.46 0.54-2.32 2.24-3.52-0.74-0.96-1.15-1.68-1.15-2.69 0-1.63 1.05-2.63 2.78-2.63 1.7 0 2.66 0.93 2.66 2.44 0 1.21-0.66 2.08-2.37 3.21l2.59 3.31q0.58-0.79 0.58-2.43l1.34 0.13c-0.02 1.28-0.45 2.56-1.07 3.31l1.36 1.65h-1.62l-0.59-0.72c-0.62 0.59-1.7 0.98-3.23 0.98zm-0.1-7.2c1.22-0.76 1.67-1.33 1.67-2.15 0-0.77-0.45-1.18-1.22-1.18-0.85 0-1.34 0.48-1.34 1.28 0 0.65 0.22 1.18 0.89 2.05zm0.26 5.92c1.09 0 1.81-0.29 2.17-0.68l-2.81-3.55c-1.15 0.8-1.6 1.47-1.6 2.47 0 1.07 0.67 1.76 2.24 1.76zm10.43 1.02v-11.36h4.31c2.38 0 3.87 1.33 3.87 3.44 0 1.31-0.91 2.3-1.92 2.61 1.01 0.17 1.6 0.78 1.71 1.97l0.32 3.34h-1.39l-0.29-3.2c-0.08-0.94-0.62-1.38-1.94-1.38h-3.29v4.58zm1.37-5.92h3.11c1.37 0 2.25-0.72 2.25-2.03 0-1.31-0.86-2.07-2.43-2.07h-2.93zm8.34 5.92l3.12-4.35-2.96-4.13h1.57l2.22 3.2 2.16-3.2h1.6l-2.93 4.16 3.07 4.32h-1.56l-2.34-3.42-2.35 3.42zm-213.46 21v-8.48h1.18l0.05 1.57c0.31-1.07 0.98-1.57 2.02-1.57h0.83v1.28h-0.82q-1.92 0-1.92 2.08v5.12zm8.67 0.2c-2.4 0-3.89-1.75-3.89-4.44 0-2.68 1.49-4.43 3.82-4.43 2.21 0 3.75 1.6 3.75 4.45v0.4h-6.16c0.09 1.82 1.01 2.74 2.48 2.74 1.1 0 1.82-0.56 2.11-1.43l1.44 0.11c-0.45 1.52-1.76 2.6-3.55 2.6zm-2.48-5.2h4.69c-0.13-1.64-1.03-2.39-2.28-2.39-1.31 0-2.19 0.82-2.41 2.39zm11.16 5.2c-2.37 0-3.89-1.75-3.89-4.44 0-2.68 1.52-4.43 3.89-4.43 1.95 0 3.31 1.06 3.6 2.95l-1.41 0.09c-0.19-1.12-1.04-1.76-2.19-1.76-1.57 0-2.48 1.19-2.48 3.15 0 1.97 0.91 3.16 2.48 3.16 1.15 0 2-0.64 2.19-1.92l1.41 0.09c-0.29 1.89-1.65 3.11-3.6 3.11zm8.43 0c-2.35 0-3.89-1.73-3.89-4.44 0-2.7 1.54-4.43 3.89-4.43 2.33 0 3.87 1.73 3.87 4.43 0 2.71-1.54 4.44-3.87 4.44zm0-1.28c1.55 0 2.46-1.19 2.46-3.16 0-1.96-0.91-3.15-2.46-3.15-1.57 0-2.48 1.19-2.48 3.15 0 1.97 0.91 3.16 2.48 3.16zm5.51 1.08v-8.48h1.23l0.03 1.49c0.42-1.04 1.3-1.68 2.38-1.68 1.28 0 2.18 0.64 2.55 1.78 0.37-1.14 1.23-1.78 2.48-1.78 1.81 0 2.8 1.17 2.8 3.22v5.45h-1.35v-5.16q-0.01-2.32-1.77-2.32c-1.19 0-1.95 0.89-1.95 2.41v5.07h-1.35v-5.07c0-1.5-0.49-2.41-1.74-2.41-1.19 0-1.97 0.91-1.97 2.41v5.07zm13.4 0v-8.48h1.23l0.03 1.49c0.42-1.04 1.3-1.68 2.39-1.68 1.28 0 2.17 0.64 2.54 1.78 0.37-1.14 1.23-1.78 2.48-1.78 1.81 0 2.8 1.17 2.8 3.22v5.45h-1.34v-5.16q-0.02-2.32-1.78-2.32c-1.18 0-1.95 0.89-1.95 2.41v5.07h-1.35v-5.07c0-1.5-0.49-2.41-1.74-2.41-1.18 0-1.97 0.91-1.97 2.41v5.07zm16.84 0.2c-2.4 0-3.89-1.75-3.89-4.44 0-2.68 1.49-4.43 3.83-4.43 2.2 0 3.74 1.6 3.74 4.45v0.4h-6.16c0.1 1.82 1.01 2.74 2.48 2.74 1.1 0 1.82-0.56 2.11-1.43l1.44 0.11c-0.45 1.52-1.76 2.6-3.55 2.6zm-2.48-5.2h4.69c-0.13-1.64-1.03-2.39-2.27-2.39-1.32 0-2.2 0.82-2.42 2.39zm7.8 5v-8.48h1.23l0.03 1.52c0.45-1.16 1.44-1.71 2.61-1.71 1.94 0 2.87 1.43 2.87 3.22v5.45h-1.35v-5.07c0-1.57-0.53-2.41-1.81-2.41-1.31 0-2.24 0.84-2.24 2.41v5.07zm11.8 0.2c-2.21 0-3.58-1.72-3.58-4.44 0-2.72 1.37-4.43 3.58-4.43 1.14 0 2.15 0.51 2.61 1.38v-4.07h1.34v11.36h-1.21l-0.05-1.28c-0.48 0.93-1.5 1.48-2.69 1.48zm0.27-1.28c1.51 0 2.34-1.22 2.34-3.16 0-1.96-0.83-3.15-2.34-3.15-1.48 0-2.44 1.19-2.44 3.15 0 1.94 0.96 3.16 2.44 3.16zm8.25 1.28c-1.76 0-2.86-0.85-2.86-2.31 0-1.44 0.82-2.24 2.67-2.59l3.01-0.56q0-2.13-2.02-2.13c-1.18 0-1.84 0.55-2.09 1.52l-1.43-0.11c0.32-1.6 1.6-2.69 3.52-2.69 2.18 0 3.36 1.31 3.36 3.46v3.5c0 0.39 0.13 0.53 0.45 0.53h0.34v1.18c-0.1 0.02-0.31 0.04-0.51 0.04-1.03 0-1.49-0.4-1.6-1.35-0.42 0.88-1.59 1.51-2.84 1.51zm0.13-1.19c1.7 0 2.69-1.09 2.69-2.49v-0.61l-2.75 0.51c-1.15 0.21-1.52 0.64-1.52 1.34 0 0.8 0.59 1.25 1.58 1.25zm8.65 0.99c-1.54 0-2.26-0.67-2.26-2.17v-5.12h-1.24v-1.19h1.24v-1.98h1.35v1.98h2.25v1.19h-2.25v5.09c0 0.76 0.33 1.02 1.04 1.02h1.21v1.18zm2.86-9.8v-1.57h1.41v1.57zm0.03 9.8v-8.48h1.35v8.48zm6.94 0.2c-2.35 0-3.89-1.73-3.89-4.44 0-2.7 1.54-4.43 3.89-4.43 2.34 0 3.87 1.73 3.87 4.43 0 2.71-1.53 4.44-3.87 4.44zm0-1.28c1.55 0 2.47-1.19 2.47-3.16 0-1.96-0.92-3.15-2.47-3.15-1.57 0-2.48 1.19-2.48 3.15 0 1.97 0.91 3.16 2.48 3.16zm5.51 1.08v-8.48h1.23l0.03 1.52c0.45-1.16 1.44-1.71 2.61-1.71 1.94 0 2.86 1.43 2.86 3.22v5.45h-1.34v-5.07c0-1.57-0.53-2.41-1.81-2.41-1.31 0-2.24 0.84-2.24 2.41v5.07zm11.88 0.2c-2.27 0-3.53-1.2-3.66-2.87l1.41-0.09c0.16 1.02 0.81 1.68 2.25 1.68 1.15 0 1.91-0.36 1.91-1.19 0-0.67-0.34-0.96-2.16-1.28-2.44-0.43-3.2-1.18-3.2-2.53 0-1.5 1.15-2.59 3.2-2.59 2.06 0 3.15 1.25 3.4 2.72l-1.4 0.1c-0.2-0.9-0.87-1.54-2.02-1.54-1.22 0-1.78 0.53-1.78 1.25 0 0.83 0.55 1.15 2.05 1.41 2.59 0.45 3.31 1.12 3.31 2.46 0 1.57-1.44 2.47-3.31 2.47zm4.5-0.2v-1.8h1.81v1.8z"/>
			</g>
		</g>
	</g>
</svg>