<svg width="669" height="190" viewBox="0 0 669 190" fill="none" xmlns="http://www.w3.org/2000/svg">
<rect x="0.28" y="0.28" width="164.44" height="90.44" rx="11.72" fill="white"/>
<rect x="0.28" y="0.28" width="164.44" height="90.44" rx="11.72" stroke="#E9A15E" stroke-width="0.56"/>
<path d="M19.1074 30.0723C19.1074 33.1983 20.6988 35.952 23.115 37.5691" stroke="#2B2B2B" stroke-miterlimit="10" stroke-linecap="round"/>
<path d="M33.1367 37.5634C35.5482 35.9457 37.1362 33.1947 37.1362 30.0728" stroke="#2B2B2B" stroke-miterlimit="10" stroke-linecap="round"/>
<path d="M31.9953 35.8885C33.8582 34.639 35.0854 32.5134 35.0854 30.1014C35.0854 26.256 31.9674 23.1382 28.1218 23.1382C24.2762 23.1382 21.1582 26.2553 21.1582 30.1014C21.1582 32.5162 22.3874 34.6437 24.2544 35.8926" stroke="#2B2B2B" stroke-miterlimit="10"/>
<path d="M28.1268 43.776C30.8288 43.776 33.0192 41.5857 33.0192 38.8839C33.0192 36.182 30.8288 33.9917 28.1268 33.9917C25.4248 33.9917 23.2344 36.182 23.2344 38.8839C23.2344 41.5857 25.4248 43.776 28.1268 43.776Z" stroke="#2B2B2B" stroke-miterlimit="10"/>
<path d="M27.964 32.5903C29.5083 32.5903 30.7601 31.3386 30.7601 29.7944C30.7601 28.2503 29.5083 26.9985 27.964 26.9985C26.4198 26.9985 25.168 28.2503 25.168 29.7944C25.168 31.3386 26.4198 32.5903 27.964 32.5903Z" stroke="#2B2B2B" stroke-miterlimit="10"/>
<path d="M39.856 31.9996C39.856 34.1496 39.2842 36.1655 38.2837 37.9045C36.2363 41.4647 32.3941 43.8618 27.9924 43.8618C23.5907 43.8618 20.1392 41.7008 18.0265 38.436C17.9135 38.2618 17.8053 38.0841 17.7012 37.9045C16.7013 36.1655 16.1289 34.1496 16.1289 31.9996C16.1289 31.9819 16.1289 31.9642 16.1289 31.9472C16.1384 29.772 16.7333 27.7349 17.7645 25.9851C19.8282 22.4848 23.6363 20.1367 27.9931 20.1367C32.3499 20.1367 35.8137 22.2786 37.9311 25.5196C38.0319 25.6734 38.1292 25.8299 38.2224 25.9892C39.2522 27.7377 39.8464 29.7733 39.8553 31.9465C39.8553 31.9642 39.8553 31.9819 39.8553 31.9989L39.856 31.9996Z" stroke="#2B2B2B" stroke-miterlimit="10"/>
<path d="M22.1001 71.256C18.9001 71.256 17.0281 68.76 17.0281 65.336C17.0281 61.928 18.9321 59.384 22.1321 59.384C24.8521 59.384 26.2601 61.016 26.6761 63.128L25.2361 63.224C24.9481 61.752 24.0681 60.728 22.1321 60.728C19.5401 60.728 18.4681 62.872 18.4681 65.336C18.4681 67.928 19.5881 69.912 22.1321 69.912C24.1481 69.912 25.3961 68.376 25.4281 66.568H22.1641V65.256H26.7081V71H25.6841L25.6201 69.096C25.0601 70.376 23.6521 71.256 22.1001 71.256ZM31.8884 71.192C29.4884 71.192 28.0004 69.448 28.0004 66.76C28.0004 64.072 29.4884 62.328 31.8244 62.328C34.0324 62.328 35.5684 63.928 35.5684 66.776V67.176H29.4084C29.5044 69 30.4164 69.912 31.8884 69.912C32.9924 69.912 33.7124 69.352 34.0004 68.488L35.4404 68.6C34.9924 70.12 33.6804 71.192 31.8884 71.192ZM29.4084 65.992H34.0964C33.9684 64.36 33.0724 63.608 31.8244 63.608C30.5124 63.608 29.6324 64.424 29.4084 65.992ZM37.0484 71V62.52H38.2804L38.3124 64.04C38.7604 62.872 39.7524 62.328 40.9204 62.328C42.8564 62.328 43.7844 63.752 43.7844 65.544V71H42.4404V65.928C42.4404 64.36 41.9124 63.512 40.6324 63.512C39.3204 63.512 38.3924 64.36 38.3924 65.928V71H37.0484ZM48.9909 71.192C46.5909 71.192 45.1029 69.448 45.1029 66.76C45.1029 64.072 46.5909 62.328 48.9269 62.328C51.1349 62.328 52.6709 63.928 52.6709 66.776V67.176H46.5109C46.6069 69 47.5189 69.912 48.9909 69.912C50.0949 69.912 50.8149 69.352 51.1029 68.488L52.5429 68.6C52.0949 70.12 50.7829 71.192 48.9909 71.192ZM46.5109 65.992H51.1989C51.0709 64.36 50.1749 63.608 48.9269 63.608C47.6149 63.608 46.7349 64.424 46.5109 65.992ZM54.1509 71V62.52H55.3349L55.3829 64.088C55.6869 63.016 56.3589 62.52 57.3989 62.52H58.2309V63.8H57.4149C56.1349 63.8 55.4949 64.488 55.4949 65.88V71H54.1509ZM61.6319 71.192C59.8719 71.192 58.7679 70.344 58.7679 68.888C58.7679 67.448 59.5839 66.648 61.4399 66.296L64.4479 65.736C64.4479 64.312 63.7759 63.608 62.4319 63.608C61.2479 63.608 60.5919 64.152 60.3359 65.128L58.9119 65.016C59.2319 63.416 60.5119 62.328 62.4319 62.328C64.6079 62.328 65.7919 63.64 65.7919 65.784V69.288C65.7919 69.672 65.9199 69.816 66.2399 69.816H66.5759V71C66.4799 71.016 66.2719 71.032 66.0639 71.032C65.0399 71.032 64.5759 70.632 64.4639 69.688C64.0479 70.568 62.8799 71.192 61.6319 71.192ZM61.7599 70.008C63.4559 70.008 64.4479 68.92 64.4479 67.512V66.904L61.6959 67.416C60.5439 67.624 60.1759 68.056 60.1759 68.76C60.1759 69.56 60.7679 70.008 61.7599 70.008ZM69.4487 71C68.4567 71 67.7847 70.52 67.7847 69.4V59.64H69.1287V69.288C69.1287 69.64 69.3047 69.816 69.6567 69.816H70.3927V71H69.4487ZM79.9639 71.256C76.9239 71.256 74.8599 69.016 74.8599 65.336C74.8599 61.656 76.9239 59.384 79.9639 59.384C82.7159 59.384 84.1719 60.872 84.6519 63.256L83.1959 63.352C82.8759 61.736 81.8519 60.728 79.9639 60.728C77.7879 60.728 76.2999 62.456 76.2999 65.336C76.2999 68.216 77.7879 69.912 79.9639 69.912C81.9479 69.912 83.0039 68.808 83.2919 67.032L84.7479 67.128C84.3319 69.592 82.6839 71.256 79.9639 71.256ZM89.6109 71.192C87.2589 71.192 85.7229 69.464 85.7229 66.76C85.7229 64.056 87.2589 62.328 89.6109 62.328C91.9469 62.328 93.4829 64.056 93.4829 66.76C93.4829 69.464 91.9469 71.192 89.6109 71.192ZM89.6109 69.912C91.1629 69.912 92.0749 68.728 92.0749 66.76C92.0749 64.792 91.1629 63.608 89.6109 63.608C88.0429 63.608 87.1309 64.792 87.1309 66.76C87.1309 68.728 88.0429 69.912 89.6109 69.912ZM94.9584 71V62.52H96.1904L96.2224 64.04C96.6704 62.872 97.6624 62.328 98.8304 62.328C100.766 62.328 101.694 63.752 101.694 65.544V71H100.35V65.928C100.35 64.36 99.8224 63.512 98.5424 63.512C97.2304 63.512 96.3024 64.36 96.3024 65.928V71H94.9584ZM106.597 71.192C104.389 71.192 103.013 69.48 103.013 66.76C103.013 64.04 104.389 62.328 106.597 62.328C107.733 62.328 108.741 62.84 109.205 63.704V59.64H110.549V71H109.333L109.285 69.72C108.805 70.648 107.781 71.192 106.597 71.192ZM106.869 69.912C108.373 69.912 109.205 68.696 109.205 66.76C109.205 64.792 108.373 63.608 106.869 63.608C105.381 63.608 104.421 64.792 104.421 66.76C104.421 68.696 105.381 69.912 106.869 69.912ZM112.185 61.192V59.624H113.593V61.192H112.185ZM112.217 71V62.52H113.561V71H112.217ZM118.107 71C116.571 71 115.851 70.328 115.851 68.824V63.704H114.603V62.52H115.851V60.536H117.195V62.52H119.451V63.704H117.195V68.792C117.195 69.56 117.531 69.816 118.235 69.816H119.451V71H118.107ZM120.803 61.192V59.624H122.211V61.192H120.803ZM120.835 71V62.52H122.179V71H120.835ZM127.622 71.192C125.27 71.192 123.734 69.464 123.734 66.76C123.734 64.056 125.27 62.328 127.622 62.328C129.958 62.328 131.494 64.056 131.494 66.76C131.494 69.464 129.958 71.192 127.622 71.192ZM127.622 69.912C129.174 69.912 130.086 68.728 130.086 66.76C130.086 64.792 129.174 63.608 127.622 63.608C126.054 63.608 125.142 64.792 125.142 66.76C125.142 68.728 126.054 69.912 127.622 69.912ZM132.969 71V62.52H134.201L134.233 64.04C134.681 62.872 135.673 62.328 136.841 62.328C138.777 62.328 139.705 63.752 139.705 65.544V71H138.361V65.928C138.361 64.36 137.833 63.512 136.553 63.512C135.241 63.512 134.313 64.36 134.313 65.928V71H132.969ZM144.688 71.192C142.416 71.192 141.152 69.992 141.024 68.328L142.432 68.232C142.592 69.256 143.248 69.912 144.688 69.912C145.84 69.912 146.592 69.56 146.592 68.728C146.592 68.056 146.256 67.768 144.432 67.448C142 67.016 141.232 66.264 141.232 64.92C141.232 63.416 142.384 62.328 144.432 62.328C146.496 62.328 147.584 63.576 147.84 65.048L146.432 65.144C146.24 64.248 145.568 63.608 144.416 63.608C143.2 63.608 142.64 64.136 142.64 64.856C142.64 65.688 143.184 66.008 144.688 66.264C147.28 66.712 148 67.384 148 68.728C148 70.296 146.56 71.192 144.688 71.192Z" fill="#2B2B2B"/>
<rect x="173.28" y="0.28" width="233.44" height="90.44" rx="11.72" fill="white"/>
<rect x="173.28" y="0.28" width="233.44" height="90.44" rx="11.72" stroke="#E9A15E" stroke-width="0.56"/>
<path d="M212.864 32.0003C212.864 34.1504 212.292 36.1664 211.292 37.9055C209.244 41.4659 205.402 43.8631 201 43.8631C196.599 43.8631 193.147 41.7021 191.034 38.4371C190.921 38.2628 190.813 38.0852 190.709 37.9055C189.709 36.1664 189.137 34.1504 189.137 32.0003C189.137 31.9826 189.137 31.9649 189.137 31.9478C189.146 29.7725 189.741 27.7354 190.772 25.9854C192.836 22.4849 196.644 20.1367 201.001 20.1367C205.358 20.1367 208.821 22.2787 210.939 25.5199C211.04 25.6737 211.137 25.8303 211.23 25.9895C212.26 27.7381 212.854 29.7739 212.863 31.9472C212.863 31.9649 212.863 31.9826 212.863 31.9996L212.864 32.0003Z" stroke="#2B2B2B" stroke-miterlimit="10"/>
<path d="M202.959 42.6979L206.39 36.7552C207.219 35.3197 206.183 33.5249 204.525 33.5249H197.663C196.005 33.5249 194.969 35.3191 195.798 36.7552L199.229 42.6979C200.058 44.1333 202.13 44.1333 202.959 42.6979Z" stroke="#2B2B2B" stroke-miterlimit="10" stroke-linecap="round"/>
<path d="M202.904 37.0065L206.332 31.0679C207.16 29.6352 206.125 27.8438 204.471 27.8438H197.614C195.959 27.8438 194.925 29.6352 195.752 31.0679L199.181 37.0065C200.008 38.4393 202.077 38.4393 202.904 37.0065Z" stroke="#2B2B2B" stroke-miterlimit="10" stroke-linecap="round"/>
<path d="M202.293 30.2962L205.263 25.1512C205.818 24.1895 205.124 22.9868 204.013 22.9868H198.072C196.961 22.9868 196.267 24.1895 196.822 25.1512L199.793 30.2962C200.348 31.2579 201.737 31.2579 202.292 30.2962H202.293Z" stroke="#2B2B2B" stroke-miterlimit="10" stroke-linecap="round"/>
<path d="M194.576 71.256C191.952 71.256 190.272 69.672 190.08 67.368L191.52 67.272C191.744 68.968 192.784 69.912 194.608 69.912C196.192 69.912 197.12 69.288 197.12 68.12C197.12 67.064 196.592 66.424 193.872 65.752C191.248 65.096 190.32 64.312 190.32 62.616C190.32 60.712 191.76 59.384 194.096 59.384C196.592 59.384 198.064 60.92 198.32 63L196.88 63.096C196.688 61.72 195.76 60.728 194.064 60.728C192.656 60.728 191.76 61.464 191.76 62.552C191.76 63.624 192.336 64.008 194.736 64.6C197.584 65.304 198.56 66.392 198.56 68.024C198.56 70.008 196.896 71.256 194.576 71.256ZM199.999 73.4V62.52H201.247L201.263 63.816C201.775 62.84 202.719 62.328 203.871 62.328C206.399 62.328 207.535 64.424 207.535 66.76C207.535 69.096 206.399 71.192 203.871 71.192C202.767 71.192 201.791 70.696 201.343 69.88V73.4H199.999ZM203.743 69.912C205.215 69.912 206.127 68.744 206.127 66.76C206.127 64.776 205.215 63.608 203.743 63.608C202.271 63.608 201.343 64.68 201.343 66.76C201.343 68.84 202.255 69.912 203.743 69.912ZM208.737 61.192V59.624H210.145V61.192H208.737ZM208.769 71V62.52H210.113V71H208.769ZM211.961 71V62.52H213.193L213.225 64.04C213.673 62.872 214.665 62.328 215.833 62.328C217.769 62.328 218.697 63.752 218.697 65.544V71H217.353V65.928C217.353 64.36 216.825 63.512 215.545 63.512C214.233 63.512 213.305 64.36 213.305 65.928V71H211.961ZM222.957 71.192C221.197 71.192 220.093 70.344 220.093 68.888C220.093 67.448 220.909 66.648 222.765 66.296L225.773 65.736C225.773 64.312 225.101 63.608 223.757 63.608C222.573 63.608 221.917 64.152 221.661 65.128L220.237 65.016C220.557 63.416 221.837 62.328 223.757 62.328C225.933 62.328 227.117 63.64 227.117 65.784V69.288C227.117 69.672 227.245 69.816 227.565 69.816H227.901V71C227.805 71.016 227.597 71.032 227.389 71.032C226.365 71.032 225.901 70.632 225.789 69.688C225.373 70.568 224.205 71.192 222.957 71.192ZM223.085 70.008C224.781 70.008 225.773 68.92 225.773 67.512V66.904L223.021 67.416C221.869 67.624 221.501 68.056 221.501 68.76C221.501 69.56 222.093 70.008 223.085 70.008ZM230.774 71C229.782 71 229.11 70.52 229.11 69.4V59.64H230.454V69.288C230.454 69.64 230.63 69.816 230.982 69.816H231.718V71H230.774ZM239.561 71.256C237.385 71.256 236.041 70.168 236.041 68.216C236.041 66.76 236.585 65.896 238.281 64.696C237.545 63.736 237.129 63.016 237.129 62.008C237.129 60.376 238.185 59.384 239.913 59.384C241.609 59.384 242.569 60.312 242.569 61.816C242.569 63.032 241.913 63.896 240.201 65.032L242.793 68.344C243.177 67.816 243.369 67 243.369 65.912L244.713 66.04C244.697 67.32 244.265 68.6 243.641 69.352L245.001 71H243.385L242.793 70.28C242.169 70.872 241.097 71.256 239.561 71.256ZM239.465 64.056C240.681 63.304 241.129 62.728 241.129 61.912C241.129 61.144 240.681 60.728 239.913 60.728C239.065 60.728 238.569 61.208 238.569 62.008C238.569 62.664 238.793 63.192 239.465 64.056ZM239.721 69.976C240.809 69.976 241.529 69.688 241.897 69.304L239.081 65.752C237.929 66.552 237.481 67.224 237.481 68.216C237.481 69.288 238.153 69.976 239.721 69.976ZM253.803 71.256C251.179 71.256 249.499 69.672 249.307 67.368L250.747 67.272C250.971 68.968 252.011 69.912 253.835 69.912C255.419 69.912 256.347 69.288 256.347 68.12C256.347 67.064 255.819 66.424 253.099 65.752C250.475 65.096 249.547 64.312 249.547 62.616C249.547 60.712 250.987 59.384 253.323 59.384C255.819 59.384 257.291 60.92 257.547 63L256.107 63.096C255.915 61.72 254.987 60.728 253.291 60.728C251.883 60.728 250.987 61.464 250.987 62.552C250.987 63.624 251.563 64.008 253.963 64.6C256.811 65.304 257.787 66.392 257.787 68.024C257.787 70.008 256.123 71.256 253.803 71.256ZM262.002 71C260.466 71 259.746 70.328 259.746 68.824V63.704H258.498V62.52H259.746V60.536H261.09V62.52H263.346V63.704H261.09V68.792C261.09 69.56 261.426 69.816 262.13 69.816H263.346V71H262.002ZM264.808 71V62.52H265.992L266.04 64.088C266.344 63.016 267.016 62.52 268.056 62.52H268.888V63.8H268.072C266.792 63.8 266.152 64.488 266.152 65.88V71H264.808ZM273.222 71.192C271.526 71.192 270.438 69.992 270.438 67.976V62.52H271.782V67.608C271.782 69.256 272.358 70.008 273.574 70.008C274.918 70.008 275.734 69.096 275.734 67.576V62.52H277.078V71H275.798V69.624C275.334 70.632 274.438 71.192 273.222 71.192ZM282.286 71.192C279.918 71.192 278.398 69.448 278.398 66.76C278.398 64.072 279.918 62.328 282.286 62.328C284.238 62.328 285.598 63.384 285.886 65.272L284.478 65.368C284.286 64.248 283.438 63.608 282.286 63.608C280.718 63.608 279.806 64.792 279.806 66.76C279.806 68.728 280.718 69.912 282.286 69.912C283.438 69.912 284.286 69.272 284.478 67.992L285.886 68.088C285.598 69.976 284.238 71.192 282.286 71.192ZM289.894 71C288.358 71 287.638 70.328 287.638 68.824V63.704H286.39V62.52H287.638V60.536H288.982V62.52H291.238V63.704H288.982V68.792C288.982 69.56 289.318 69.816 290.022 69.816H291.238V71H289.894ZM295.407 71.192C293.711 71.192 292.623 69.992 292.623 67.976V62.52H293.967V67.608C293.967 69.256 294.543 70.008 295.759 70.008C297.103 70.008 297.919 69.096 297.919 67.576V62.52H299.263V71H297.983V69.624C297.519 70.632 296.623 71.192 295.407 71.192ZM301.346 71V62.52H302.53L302.578 64.088C302.882 63.016 303.554 62.52 304.594 62.52H305.426V63.8H304.61C303.33 63.8 302.69 64.488 302.69 65.88V71H301.346ZM308.827 71.192C307.067 71.192 305.963 70.344 305.963 68.888C305.963 67.448 306.779 66.648 308.635 66.296L311.643 65.736C311.643 64.312 310.971 63.608 309.627 63.608C308.443 63.608 307.787 64.152 307.531 65.128L306.107 65.016C306.427 63.416 307.707 62.328 309.627 62.328C311.803 62.328 312.987 63.64 312.987 65.784V69.288C312.987 69.672 313.115 69.816 313.435 69.816H313.771V71C313.675 71.016 313.467 71.032 313.259 71.032C312.235 71.032 311.771 70.632 311.659 69.688C311.243 70.568 310.075 71.192 308.827 71.192ZM308.955 70.008C310.651 70.008 311.643 68.92 311.643 67.512V66.904L308.891 67.416C307.739 67.624 307.371 68.056 307.371 68.76C307.371 69.56 307.963 70.008 308.955 70.008ZM316.643 71C315.651 71 314.979 70.52 314.979 69.4V59.64H316.323V69.288C316.323 69.64 316.499 69.816 316.851 69.816H317.587V71H316.643ZM322.743 71V59.64H326.263C329.751 59.64 331.719 61.688 331.719 65.336C331.719 68.968 329.799 71 326.359 71H322.743ZM324.119 69.656H326.263C328.935 69.656 330.279 68.216 330.279 65.336C330.279 62.424 328.935 60.984 326.263 60.984H324.119V69.656ZM333.439 73.4V72.216H334.415C335.007 72.216 335.247 72.04 335.407 71.64L335.711 70.84H335.247L332.143 62.52H333.615L336.143 69.592L338.559 62.52H340.031L336.591 72.072C336.271 72.984 335.679 73.4 334.543 73.4H333.439ZM341.184 71V62.52H342.416L342.448 64.04C342.896 62.872 343.888 62.328 345.056 62.328C346.992 62.328 347.92 63.752 347.92 65.544V71H346.576V65.928C346.576 64.36 346.048 63.512 344.768 63.512C343.456 63.512 342.528 64.36 342.528 65.928V71H341.184ZM352.181 71.192C350.421 71.192 349.317 70.344 349.317 68.888C349.317 67.448 350.133 66.648 351.989 66.296L354.997 65.736C354.997 64.312 354.325 63.608 352.981 63.608C351.797 63.608 351.141 64.152 350.885 65.128L349.461 65.016C349.781 63.416 351.061 62.328 352.981 62.328C355.157 62.328 356.341 63.64 356.341 65.784V69.288C356.341 69.672 356.469 69.816 356.789 69.816H357.125V71C357.029 71.016 356.821 71.032 356.613 71.032C355.589 71.032 355.125 70.632 355.013 69.688C354.597 70.568 353.429 71.192 352.181 71.192ZM352.309 70.008C354.005 70.008 354.997 68.92 354.997 67.512V66.904L352.245 67.416C351.093 67.624 350.725 68.056 350.725 68.76C350.725 69.56 351.317 70.008 352.309 70.008ZM358.412 71V62.52H359.644L359.676 64.008C360.092 62.968 360.972 62.328 362.06 62.328C363.34 62.328 364.236 62.968 364.604 64.104C364.972 62.968 365.836 62.328 367.084 62.328C368.892 62.328 369.884 63.496 369.884 65.544V71H368.54V65.832C368.54 64.296 367.932 63.512 366.764 63.512C365.58 63.512 364.812 64.408 364.812 65.928V71H363.468V65.928C363.468 64.424 362.972 63.512 361.724 63.512C360.54 63.512 359.756 64.424 359.756 65.928V71H358.412ZM371.931 61.192V59.624H373.339V61.192H371.931ZM371.963 71V62.52H373.307V71H371.963ZM378.749 71.192C376.381 71.192 374.861 69.448 374.861 66.76C374.861 64.072 376.381 62.328 378.749 62.328C380.701 62.328 382.061 63.384 382.349 65.272L380.941 65.368C380.749 64.248 379.901 63.608 378.749 63.608C377.181 63.608 376.269 64.792 376.269 66.76C376.269 68.728 377.181 69.912 378.749 69.912C379.901 69.912 380.749 69.272 380.941 67.992L382.349 68.088C382.061 69.976 380.701 71.192 378.749 71.192ZM386.795 71.192C384.523 71.192 383.259 69.992 383.131 68.328L384.539 68.232C384.699 69.256 385.355 69.912 386.795 69.912C387.947 69.912 388.699 69.56 388.699 68.728C388.699 68.056 388.363 67.768 386.539 67.448C384.107 67.016 383.339 66.264 383.339 64.92C383.339 63.416 384.491 62.328 386.539 62.328C388.603 62.328 389.691 63.576 389.947 65.048L388.539 65.144C388.347 64.248 387.675 63.608 386.523 63.608C385.307 63.608 384.747 64.136 384.747 64.856C384.747 65.688 385.291 66.008 386.795 66.264C389.387 66.712 390.107 67.384 390.107 68.728C390.107 70.296 388.667 71.192 386.795 71.192Z" fill="#2B2B2B"/>
<rect x="415.28" y="0.28" width="253.44" height="90.44" rx="11.72" fill="white"/>
<rect x="415.28" y="0.28" width="253.44" height="90.44" rx="11.72" stroke="#E9A15E" stroke-width="0.56"/>
<path d="M454.864 32.0003C454.864 34.1504 454.292 36.1664 453.292 37.9055C451.244 41.4659 447.402 43.8631 443 43.8631C438.599 43.8631 435.147 41.7021 433.034 38.4371C432.921 38.2628 432.813 38.0852 432.709 37.9055C431.709 36.1664 431.137 34.1504 431.137 32.0003C431.137 31.9826 431.137 31.9649 431.137 31.9478C431.146 29.7725 431.741 27.7354 432.772 25.9854C434.836 22.4849 438.644 20.1367 443.001 20.1367C447.358 20.1367 450.821 22.2787 452.939 25.5199C453.04 25.6737 453.137 25.8303 453.23 25.9895C454.26 27.7381 454.854 29.7739 454.863 31.9472C454.863 31.9649 454.863 31.9826 454.863 31.9996L454.864 32.0003Z" stroke="#231F20" stroke-miterlimit="10"/>
<path d="M442.943 43.5751L452.98 26.1909H432.906L442.943 43.5751Z" stroke="#231F20" stroke-miterlimit="10"/>
<path d="M446 37.3439C444.124 38.5364 441.703 38.535 439.826 37.333" stroke="#231F20" stroke-miterlimit="10" stroke-linecap="round"/>
<path d="M444.888 36.4692C443.654 37.0805 442.193 37.0825 440.957 36.4706" stroke="#231F20" stroke-miterlimit="10" stroke-linecap="round"/>
<path d="M437.113 31.3633C437.464 29.1682 439.07 27.357 441.214 26.7485" stroke="#231F20" stroke-miterlimit="10" stroke-linecap="round"/>
<path d="M438.506 31.1106C438.866 29.7813 439.833 28.6868 441.111 28.1675" stroke="#231F20" stroke-miterlimit="10" stroke-linecap="round"/>
<path d="M444.734 26.7471C446.801 27.5672 448.221 29.5268 448.349 31.7525" stroke="#231F20" stroke-miterlimit="10" stroke-linecap="round"/>
<path d="M444.68 28.1606C445.899 28.8004 446.758 29.9827 446.987 31.3426" stroke="#231F20" stroke-miterlimit="10" stroke-linecap="round"/>
<path d="M442.821 35.4278C444.561 35.4278 445.971 34.0172 445.971 32.2771C445.971 30.5371 444.561 29.1265 442.821 29.1265C441.081 29.1265 439.67 30.5371 439.67 32.2771C439.67 34.0172 441.081 35.4278 442.821 35.4278Z" stroke="#231F20" stroke-miterlimit="10"/>
<path d="M432.762 71V59.64H439.898V60.984H434.138V64.648H439.706V65.96H434.138V69.656H440.026V71H432.762ZM441.731 71V62.52H442.963L442.995 64.04C443.443 62.872 444.435 62.328 445.603 62.328C447.539 62.328 448.467 63.752 448.467 65.544V71H447.123V65.928C447.123 64.36 446.595 63.512 445.315 63.512C444.003 63.512 443.075 64.36 443.075 65.928V71H441.731ZM453.673 71.192C451.273 71.192 449.785 69.448 449.785 66.76C449.785 64.072 451.273 62.328 453.609 62.328C455.817 62.328 457.353 63.928 457.353 66.776V67.176H451.193C451.289 69 452.201 69.912 453.673 69.912C454.777 69.912 455.497 69.352 455.785 68.488L457.225 68.6C456.777 70.12 455.465 71.192 453.673 71.192ZM451.193 65.992H455.881C455.753 64.36 454.857 63.608 453.609 63.608C452.297 63.608 451.417 64.424 451.193 65.992ZM458.833 71V62.52H460.017L460.065 64.088C460.369 63.016 461.041 62.52 462.081 62.52H462.913V63.8H462.097C460.817 63.8 460.177 64.488 460.177 65.88V71H458.833ZM467.242 73.592C465.418 73.592 464.042 72.616 463.69 71.128L465.098 71.032C465.354 71.832 465.93 72.312 467.242 72.312C468.778 72.312 469.626 71.704 469.626 70.456V69.08C469.21 69.976 468.25 70.552 467.146 70.552C464.986 70.552 463.45 68.856 463.45 66.44C463.45 64.024 464.954 62.328 467.082 62.328C468.266 62.328 469.306 62.92 469.69 63.864V62.52H470.97V70.424C470.97 72.408 469.578 73.592 467.242 73.592ZM467.21 69.272C468.666 69.272 469.61 68.184 469.626 66.44C469.658 64.696 468.682 63.608 467.21 63.608C465.722 63.608 464.858 64.696 464.858 66.44C464.858 68.184 465.754 69.272 467.21 69.272ZM473.413 73.4V72.216H474.389C474.981 72.216 475.221 72.04 475.381 71.64L475.685 70.84H475.221L472.117 62.52H473.589L476.117 69.592L478.533 62.52H480.005L476.565 72.072C476.245 72.984 475.653 73.4 474.517 73.4H473.413ZM487.559 71.256C485.383 71.256 484.039 70.168 484.039 68.216C484.039 66.76 484.583 65.896 486.279 64.696C485.543 63.736 485.127 63.016 485.127 62.008C485.127 60.376 486.183 59.384 487.911 59.384C489.607 59.384 490.567 60.312 490.567 61.816C490.567 63.032 489.911 63.896 488.199 65.032L490.791 68.344C491.175 67.816 491.367 67 491.367 65.912L492.711 66.04C492.695 67.32 492.263 68.6 491.639 69.352L492.999 71H491.383L490.791 70.28C490.167 70.872 489.095 71.256 487.559 71.256ZM487.463 64.056C488.679 63.304 489.127 62.728 489.127 61.912C489.127 61.144 488.679 60.728 487.911 60.728C487.063 60.728 486.567 61.208 486.567 62.008C486.567 62.664 486.791 63.192 487.463 64.056ZM487.719 69.976C488.807 69.976 489.527 69.688 489.895 69.304L487.079 65.752C485.927 66.552 485.479 67.224 485.479 68.216C485.479 69.288 486.151 69.976 487.719 69.976ZM497.833 71V59.64H499.209V71H497.833ZM501.239 71V62.52H502.471L502.503 64.008C502.919 62.968 503.799 62.328 504.887 62.328C506.167 62.328 507.063 62.968 507.431 64.104C507.799 62.968 508.663 62.328 509.911 62.328C511.719 62.328 512.711 63.496 512.711 65.544V71H511.367V65.832C511.367 64.296 510.759 63.512 509.591 63.512C508.407 63.512 507.639 64.408 507.639 65.928V71H506.295V65.928C506.295 64.424 505.799 63.512 504.551 63.512C503.367 63.512 502.583 64.424 502.583 65.928V71H501.239ZM514.478 71V62.52H515.71L515.742 64.008C516.158 62.968 517.038 62.328 518.126 62.328C519.406 62.328 520.302 62.968 520.67 64.104C521.038 62.968 521.902 62.328 523.15 62.328C524.958 62.328 525.95 63.496 525.95 65.544V71H524.606V65.832C524.606 64.296 523.998 63.512 522.83 63.512C521.646 63.512 520.878 64.408 520.878 65.928V71H519.534V65.928C519.534 64.424 519.038 63.512 517.79 63.512C516.606 63.512 515.822 64.424 515.822 65.928V71H514.478ZM530.579 71.192C528.883 71.192 527.795 69.992 527.795 67.976V62.52H529.139V67.608C529.139 69.256 529.715 70.008 530.931 70.008C532.275 70.008 533.091 69.096 533.091 67.576V62.52H534.435V71H533.155V69.624C532.691 70.632 531.795 71.192 530.579 71.192ZM536.518 71V62.52H537.75L537.782 64.04C538.23 62.872 539.222 62.328 540.39 62.328C542.326 62.328 543.254 63.752 543.254 65.544V71H541.91V65.928C541.91 64.36 541.382 63.512 540.102 63.512C538.79 63.512 537.862 64.36 537.862 65.928V71H536.518ZM548.46 71.192C546.06 71.192 544.572 69.448 544.572 66.76C544.572 64.072 546.06 62.328 548.396 62.328C550.604 62.328 552.14 63.928 552.14 66.776V67.176H545.98C546.076 69 546.988 69.912 548.46 69.912C549.564 69.912 550.284 69.352 550.572 68.488L552.012 68.6C551.564 70.12 550.252 71.192 548.46 71.192ZM545.98 65.992H550.668C550.54 64.36 549.644 63.608 548.396 63.608C547.084 63.608 546.204 64.424 545.98 65.992ZM557.41 71V59.64H560.93C564.418 59.64 566.386 61.688 566.386 65.336C566.386 68.968 564.466 71 561.026 71H557.41ZM558.786 69.656H560.93C563.602 69.656 564.946 68.216 564.946 65.336C564.946 62.424 563.602 60.984 560.93 60.984H558.786V69.656ZM568.106 73.4V72.216H569.082C569.674 72.216 569.914 72.04 570.074 71.64L570.378 70.84H569.914L566.81 62.52H568.282L570.81 69.592L573.226 62.52H574.698L571.258 72.072C570.938 72.984 570.346 73.4 569.21 73.4H568.106ZM578.582 71.192C576.31 71.192 575.046 69.992 574.918 68.328L576.326 68.232C576.486 69.256 577.142 69.912 578.582 69.912C579.734 69.912 580.486 69.56 580.486 68.728C580.486 68.056 580.15 67.768 578.326 67.448C575.894 67.016 575.126 66.264 575.126 64.92C575.126 63.416 576.278 62.328 578.326 62.328C580.39 62.328 581.478 63.576 581.734 65.048L580.326 65.144C580.134 64.248 579.462 63.608 578.31 63.608C577.094 63.608 576.534 64.136 576.534 64.856C576.534 65.688 577.078 66.008 578.582 66.264C581.174 66.712 581.894 67.384 581.894 68.728C581.894 70.296 580.454 71.192 578.582 71.192ZM583.372 71V62.52H584.556L584.604 64.088C584.908 63.016 585.58 62.52 586.62 62.52H587.452V63.8H586.636C585.356 63.8 584.716 64.488 584.716 65.88V71H583.372ZM591.877 71.192C589.477 71.192 587.989 69.448 587.989 66.76C587.989 64.072 589.477 62.328 591.813 62.328C594.021 62.328 595.557 63.928 595.557 66.776V67.176H589.397C589.493 69 590.405 69.912 591.877 69.912C592.981 69.912 593.701 69.352 593.989 68.488L595.429 68.6C594.981 70.12 593.669 71.192 591.877 71.192ZM589.397 65.992H594.085C593.957 64.36 593.061 63.608 591.813 63.608C590.501 63.608 589.621 64.424 589.397 65.992ZM600.301 73.592C598.477 73.592 597.101 72.616 596.749 71.128L598.157 71.032C598.413 71.832 598.989 72.312 600.301 72.312C601.837 72.312 602.685 71.704 602.685 70.456V69.08C602.269 69.976 601.309 70.552 600.205 70.552C598.045 70.552 596.509 68.856 596.509 66.44C596.509 64.024 598.013 62.328 600.141 62.328C601.325 62.328 602.365 62.92 602.749 63.864V62.52H604.029V70.424C604.029 72.408 602.637 73.592 600.301 73.592ZM600.269 69.272C601.725 69.272 602.669 68.184 602.685 66.44C602.717 64.696 601.741 63.608 600.269 63.608C598.781 63.608 597.917 64.696 597.917 66.44C597.917 68.184 598.813 69.272 600.269 69.272ZM608.888 71.192C607.192 71.192 606.104 69.992 606.104 67.976V62.52H607.448V67.608C607.448 69.256 608.024 70.008 609.24 70.008C610.584 70.008 611.4 69.096 611.4 67.576V62.52H612.744V71H611.464V69.624C611 70.632 610.104 71.192 608.888 71.192ZM616.491 71C615.499 71 614.827 70.52 614.827 69.4V59.64H616.171V69.288C616.171 69.64 616.347 69.816 616.699 69.816H617.435V71H616.491ZM621.214 71.192C619.454 71.192 618.35 70.344 618.35 68.888C618.35 67.448 619.166 66.648 621.022 66.296L624.03 65.736C624.03 64.312 623.358 63.608 622.014 63.608C620.83 63.608 620.174 64.152 619.918 65.128L618.494 65.016C618.814 63.416 620.094 62.328 622.014 62.328C624.19 62.328 625.374 63.64 625.374 65.784V69.288C625.374 69.672 625.502 69.816 625.822 69.816H626.158V71C626.062 71.016 625.854 71.032 625.646 71.032C624.622 71.032 624.158 70.632 624.046 69.688C623.63 70.568 622.462 71.192 621.214 71.192ZM621.342 70.008C623.038 70.008 624.03 68.92 624.03 67.512V66.904L621.278 67.416C620.126 67.624 619.758 68.056 619.758 68.76C619.758 69.56 620.35 70.008 621.342 70.008ZM629.831 71C628.295 71 627.575 70.328 627.575 68.824V63.704H626.327V62.52H627.575V60.536H628.919V62.52H631.175V63.704H628.919V68.792C628.919 69.56 629.255 69.816 629.959 69.816H631.175V71H629.831ZM632.527 61.192V59.624H633.935V61.192H632.527ZM632.559 71V62.52H633.903V71H632.559ZM639.345 71.192C636.993 71.192 635.457 69.464 635.457 66.76C635.457 64.056 636.993 62.328 639.345 62.328C641.681 62.328 643.217 64.056 643.217 66.76C643.217 69.464 641.681 71.192 639.345 71.192ZM639.345 69.912C640.897 69.912 641.809 68.728 641.809 66.76C641.809 64.792 640.897 63.608 639.345 63.608C637.777 63.608 636.865 64.792 636.865 66.76C636.865 68.728 637.777 69.912 639.345 69.912ZM644.693 71V62.52H645.925L645.957 64.04C646.405 62.872 647.397 62.328 648.565 62.328C650.501 62.328 651.429 63.752 651.429 65.544V71H650.085V65.928C650.085 64.36 649.557 63.512 648.277 63.512C646.965 63.512 646.037 64.36 646.037 65.928V71H644.693Z" fill="#2B2B2B"/>
<rect x="6.78" y="99.28" width="136.44" height="90.44" rx="11.72" fill="white"/>
<rect x="6.78" y="99.28" width="136.44" height="90.44" rx="11.72" stroke="#E9A15E" stroke-width="0.56"/>
<mask id="mask0_9816_4716" style="mask-type:luminance" maskUnits="userSpaceOnUse" x="22" y="119" width="25" height="24">
<path d="M34.491 142.782C40.998 142.782 46.273 137.507 46.273 131C46.273 124.493 40.998 119.218 34.491 119.218C27.984 119.218 22.709 124.493 22.709 131C22.709 137.507 27.984 142.782 34.491 142.782Z" fill="white"/>
</mask>
<g mask="url(#mask0_9816_4716)">
<path d="M49.6158 142.21C47.0956 142.21 47.0956 139.187 44.5762 139.187C42.0567 139.187 42.0567 142.21 39.5366 142.21C37.0165 142.21 37.0165 139.187 34.497 139.187C31.9769 139.187 31.9769 142.21 29.4575 142.21C26.9373 142.21 26.9373 139.187 24.4172 139.187C21.8971 139.187 21.8971 142.21 19.377 142.21" stroke="#2B2B2B" stroke-miterlimit="10"/>
<path d="M49.6158 137.515C47.0956 137.515 47.0956 134.492 44.5762 134.492C42.0567 134.492 42.0567 137.515 39.5366 137.515C37.0165 137.515 37.0165 134.492 34.497 134.492C31.9769 134.492 31.9769 137.515 29.4575 137.515C26.9373 137.515 26.9373 134.492 24.4172 134.492C21.8971 134.492 21.8971 137.515 19.377 137.515" stroke="#2B2B2B" stroke-miterlimit="10"/>
<path d="M49.6158 132.821C47.0956 132.821 47.0956 129.797 44.5762 129.797C42.0567 129.797 42.0567 132.821 39.5366 132.821C37.0165 132.821 37.0165 129.797 34.497 129.797C31.9769 129.797 31.9769 132.821 29.4575 132.821C26.9373 132.821 26.9373 129.797 24.4172 129.797C21.8971 129.797 21.8971 132.821 19.377 132.821" stroke="#2B2B2B" stroke-miterlimit="10"/>
</g>
<path d="M34.4949 142.782C41.0019 142.782 46.2769 137.507 46.2769 131C46.2769 124.493 41.0019 119.218 34.4949 119.218C27.9879 119.218 22.7129 124.493 22.7129 131C22.7129 137.507 27.9879 142.782 34.4949 142.782Z" stroke="#2B2B2B" stroke-miterlimit="10"/>
<path d="M24.377 124.776H44.5691" stroke="#2B2B2B" stroke-miterlimit="10"/>
<path d="M26.6426 122.216H42.3467" stroke="#2B2B2B" stroke-miterlimit="10"/>
<path d="M23.2898 170L27.3858 158.64H29.2418L33.3378 170H31.8338L30.6978 166.768H25.9298L24.7938 170H23.2898ZM26.3938 165.424H30.2338L28.3138 159.84L26.3938 165.424ZM37.5021 172.592C35.6781 172.592 34.3021 171.616 33.9501 170.128L35.3581 170.032C35.6141 170.832 36.1901 171.312 37.5021 171.312C39.0381 171.312 39.8861 170.704 39.8861 169.456V168.08C39.4701 168.976 38.5101 169.552 37.4061 169.552C35.2461 169.552 33.7101 167.856 33.7101 165.44C33.7101 163.024 35.2141 161.328 37.3421 161.328C38.5261 161.328 39.5661 161.92 39.9501 162.864V161.52H41.2301V169.424C41.2301 171.408 39.8381 172.592 37.5021 172.592ZM37.4701 168.272C38.9261 168.272 39.8701 167.184 39.8861 165.44C39.9181 163.696 38.9421 162.608 37.4701 162.608C35.9821 162.608 35.1181 163.696 35.1181 165.44C35.1181 167.184 36.0141 168.272 37.4701 168.272ZM43.0386 160.192V158.624H44.4466V160.192H43.0386ZM43.0706 170V161.52H44.4146V170H43.0706ZM46.2625 170V161.52H47.4945L47.5265 163.04C47.9745 161.872 48.9665 161.328 50.1345 161.328C52.0705 161.328 52.9985 162.752 52.9985 164.544V170H51.6545V164.928C51.6545 163.36 51.1265 162.512 49.8465 162.512C48.5345 162.512 47.6065 163.36 47.6065 164.928V170H46.2625ZM58.109 172.592C56.285 172.592 54.909 171.616 54.557 170.128L55.965 170.032C56.221 170.832 56.797 171.312 58.109 171.312C59.645 171.312 60.493 170.704 60.493 169.456V168.08C60.077 168.976 59.117 169.552 58.013 169.552C55.853 169.552 54.317 167.856 54.317 165.44C54.317 163.024 55.821 161.328 57.949 161.328C59.133 161.328 60.173 161.92 60.557 162.864V161.52H61.837V169.424C61.837 171.408 60.445 172.592 58.109 172.592ZM58.077 168.272C59.533 168.272 60.477 167.184 60.493 165.44C60.525 163.696 59.549 162.608 58.077 162.608C56.589 162.608 55.725 163.696 55.725 165.44C55.725 167.184 56.621 168.272 58.077 168.272ZM67.6239 170V158.64H68.9999V170H67.6239ZM71.03 170V161.52H72.262L72.294 163.04C72.742 161.872 73.734 161.328 74.902 161.328C76.838 161.328 77.766 162.752 77.766 164.544V170H76.422V164.928C76.422 163.36 75.894 162.512 74.614 162.512C73.302 162.512 72.374 163.36 72.374 164.928V170H71.03ZM82.6685 170.192C80.4605 170.192 79.0845 168.48 79.0845 165.76C79.0845 163.04 80.4605 161.328 82.6685 161.328C83.8045 161.328 84.8125 161.84 85.2765 162.704V158.64H86.6205V170H85.4045L85.3565 168.72C84.8765 169.648 83.8525 170.192 82.6685 170.192ZM82.9405 168.912C84.4445 168.912 85.2765 167.696 85.2765 165.76C85.2765 163.792 84.4445 162.608 82.9405 162.608C81.4525 162.608 80.4925 163.792 80.4925 165.76C80.4925 167.696 81.4525 168.912 82.9405 168.912ZM88.2568 160.192V158.624H89.6648V160.192H88.2568ZM88.2888 170V161.52H89.6328V170H88.2888ZM95.075 170.192C92.707 170.192 91.187 168.448 91.187 165.76C91.187 163.072 92.707 161.328 95.075 161.328C97.027 161.328 98.387 162.384 98.675 164.272L97.267 164.368C97.075 163.248 96.227 162.608 95.075 162.608C93.507 162.608 92.595 163.792 92.595 165.76C92.595 167.728 93.507 168.912 95.075 168.912C96.227 168.912 97.075 168.272 97.267 166.992L98.675 167.088C98.387 168.976 97.027 170.192 95.075 170.192ZM102.399 170.192C100.639 170.192 99.5351 169.344 99.5351 167.888C99.5351 166.448 100.351 165.648 102.207 165.296L105.215 164.736C105.215 163.312 104.543 162.608 103.199 162.608C102.015 162.608 101.359 163.152 101.103 164.128L99.6791 164.016C99.9991 162.416 101.279 161.328 103.199 161.328C105.375 161.328 106.559 162.64 106.559 164.784V168.288C106.559 168.672 106.687 168.816 107.007 168.816H107.343V170C107.247 170.016 107.039 170.032 106.831 170.032C105.807 170.032 105.343 169.632 105.231 168.688C104.815 169.568 103.647 170.192 102.399 170.192ZM102.527 169.008C104.223 169.008 105.215 167.92 105.215 166.512V165.904L102.463 166.416C101.311 166.624 100.943 167.056 100.943 167.76C100.943 168.56 101.535 169.008 102.527 169.008ZM111.015 170C109.479 170 108.759 169.328 108.759 167.824V162.704H107.511V161.52H108.759V159.536H110.103V161.52H112.359V162.704H110.103V167.792C110.103 168.56 110.439 168.816 111.143 168.816H112.359V170H111.015ZM116.869 170.192C114.517 170.192 112.981 168.464 112.981 165.76C112.981 163.056 114.517 161.328 116.869 161.328C119.205 161.328 120.741 163.056 120.741 165.76C120.741 168.464 119.205 170.192 116.869 170.192ZM116.869 168.912C118.421 168.912 119.333 167.728 119.333 165.76C119.333 163.792 118.421 162.608 116.869 162.608C115.301 162.608 114.389 163.792 114.389 165.76C114.389 167.728 115.301 168.912 116.869 168.912ZM122.217 170V161.52H123.401L123.449 163.088C123.753 162.016 124.425 161.52 125.465 161.52H126.297V162.8H125.481C124.201 162.8 123.561 163.488 123.561 164.88V170H122.217Z" fill="#2B2B2B"/>
<rect x="151.78" y="99.28" width="177.44" height="90.44" rx="11.72" fill="white"/>
<rect x="151.78" y="99.28" width="177.44" height="90.44" rx="11.72" stroke="#E9A15E" stroke-width="0.56"/>
<mask id="mask1_9816_4716" style="mask-type:luminance" maskUnits="userSpaceOnUse" x="167" y="119" width="25" height="24">
<path d="M191.364 131C191.364 133.15 190.792 135.166 189.792 136.905C187.744 140.466 183.902 142.863 179.5 142.863C175.099 142.863 171.647 140.702 169.534 137.437C169.421 137.263 169.313 137.085 169.209 136.905C168.209 135.166 167.637 133.15 167.637 131C167.637 130.983 167.637 130.965 167.637 130.948C167.646 128.773 168.241 126.735 169.272 124.985C171.336 121.485 175.144 119.137 179.501 119.137C183.858 119.137 187.321 121.279 189.439 124.52C189.54 124.674 189.637 124.83 189.73 124.99C190.76 126.738 191.354 128.774 191.363 130.947C191.363 130.965 191.363 130.983 191.363 131L191.364 131Z" fill="white"/>
</mask>
<g mask="url(#mask1_9816_4716)">
<path d="M178.922 140.121C183.776 140.121 187.71 136.187 187.71 131.334C187.71 126.48 183.776 122.546 178.922 122.546C174.069 122.546 170.135 126.48 170.135 131.334C170.135 136.187 174.069 140.121 178.922 140.121Z" stroke="#2B2B2B" stroke-linecap="round" stroke-linejoin="round"/>
<path d="M178.514 129.4C178.224 129.683 178.076 130.098 178.122 130.5C178.205 131.361 179.131 131.915 179.946 131.809C180.819 131.725 181.479 130.931 181.615 130.095C181.727 129.453 181.546 128.769 181.127 128.27C180.414 127.417 179.179 127.065 178.12 127.394C177.255 127.646 176.573 128.332 176.193 129.134C175.377 130.871 176.017 132.839 177.612 133.872C179.444 135.124 182.039 134.839 183.551 133.211C184.598 132.138 185.19 130.649 185.187 129.151C185.198 124.669 180.227 121.897 176.182 123.143C172.529 124.191 170.203 128.076 170.367 131.778C170.467 135.161 172.387 138.084 175.123 139.979C177.801 141.881 181.338 142.585 184.499 141.608C188.131 140.534 190.923 137.358 191.903 133.744C192.147 132.842 192.303 131.9 192.292 130.966C192.288 130.872 192.363 130.794 192.456 130.792C192.549 130.79 192.625 130.863 192.627 130.956C192.598 134.849 190.498 138.624 187.236 140.735C184.785 142.32 181.679 142.797 178.854 142.084C176.97 141.621 175.224 140.666 173.77 139.387C170.759 136.858 169.242 132.742 170.318 128.901C171.389 125.017 174.834 122.082 178.976 122.476C183.056 122.843 186.428 126.416 185.436 130.617C185.091 132.054 184.233 133.389 183.007 134.228C180.891 135.676 177.863 135.242 176.267 133.225C175.316 132.037 175.13 130.313 175.79 128.943C176.222 128.028 177.005 127.251 177.99 126.963C179.461 126.5 181.257 127.198 181.883 128.642C182.545 130.1 181.662 132.081 180 132.27C179.472 132.335 178.92 132.201 178.481 131.896C177.502 131.26 177.329 129.878 178.159 129.045C178.4 128.815 178.744 129.159 178.514 129.399V129.4Z" fill="#2B2B2B"/>
</g>
<path d="M191.364 131C191.364 133.15 190.792 135.166 189.792 136.905C187.744 140.466 183.902 142.863 179.5 142.863C175.099 142.863 171.647 140.702 169.534 137.437C169.421 137.263 169.313 137.085 169.209 136.905C168.209 135.166 167.637 133.15 167.637 131C167.637 130.983 167.637 130.965 167.637 130.948C167.646 128.773 168.241 126.735 169.272 124.985C171.336 121.485 175.144 119.137 179.501 119.137C183.858 119.137 187.321 121.279 189.439 124.52C189.54 124.674 189.637 124.83 189.73 124.99C190.76 126.738 191.354 128.774 191.363 130.947C191.363 130.965 191.363 130.983 191.363 131L191.364 131Z" stroke="#2B2B2B" stroke-miterlimit="10"/>
<path d="M169.186 170V158.64H171.106L174.738 168.496L178.354 158.64H180.274V170H178.898V161.2L175.65 170H173.81L170.562 161.2V170H169.186ZM182.107 160.192V158.624H183.515V160.192H182.107ZM182.139 170V161.52H183.483V170H182.139ZM188.925 170.192C186.557 170.192 185.037 168.448 185.037 165.76C185.037 163.072 186.557 161.328 188.925 161.328C190.877 161.328 192.237 162.384 192.525 164.272L191.117 164.368C190.925 163.248 190.077 162.608 188.925 162.608C187.357 162.608 186.445 163.792 186.445 165.76C186.445 167.728 187.357 168.912 188.925 168.912C190.077 168.912 190.925 168.272 191.117 166.992L192.525 167.088C192.237 168.976 190.877 170.192 188.925 170.192ZM193.835 170V161.52H195.019L195.067 163.088C195.371 162.016 196.043 161.52 197.083 161.52H197.915V162.8H197.099C195.819 162.8 195.179 163.488 195.179 164.88V170H193.835ZM202.34 170.192C199.988 170.192 198.452 168.464 198.452 165.76C198.452 163.056 199.988 161.328 202.34 161.328C204.676 161.328 206.212 163.056 206.212 165.76C206.212 168.464 204.676 170.192 202.34 170.192ZM202.34 168.912C203.892 168.912 204.804 167.728 204.804 165.76C204.804 163.792 203.892 162.608 202.34 162.608C200.772 162.608 199.86 163.792 199.86 165.76C199.86 167.728 200.772 168.912 202.34 168.912ZM207.688 170V161.52H208.92L208.952 163.04C209.4 161.872 210.392 161.328 211.56 161.328C213.496 161.328 214.424 162.752 214.424 164.544V170H213.08V164.928C213.08 163.36 212.552 162.512 211.272 162.512C209.96 162.512 209.032 163.36 209.032 164.928V170H207.688ZM219.054 170.192C217.358 170.192 216.27 168.992 216.27 166.976V161.52H217.614V166.608C217.614 168.256 218.19 169.008 219.406 169.008C220.75 169.008 221.566 168.096 221.566 166.576V161.52H222.91V170H221.63V168.624C221.166 169.632 220.27 170.192 219.054 170.192ZM227.801 170C226.265 170 225.545 169.328 225.545 167.824V162.704H224.297V161.52H225.545V159.536H226.889V161.52H229.145V162.704H226.889V167.792C226.889 168.56 227.225 168.816 227.929 168.816H229.145V170H227.801ZM230.607 170V161.52H231.791L231.839 163.088C232.143 162.016 232.815 161.52 233.855 161.52H234.687V162.8H233.871C232.591 162.8 231.951 163.488 231.951 164.88V170H230.607ZM235.97 160.192V158.624H237.378V160.192H235.97ZM236.002 170V161.52H237.346V170H236.002ZM242.788 170.192C240.388 170.192 238.9 168.448 238.9 165.76C238.9 163.072 240.388 161.328 242.724 161.328C244.932 161.328 246.468 162.928 246.468 165.776V166.176H240.308C240.404 168 241.316 168.912 242.788 168.912C243.892 168.912 244.612 168.352 244.9 167.488L246.34 167.6C245.892 169.12 244.58 170.192 242.788 170.192ZM240.308 164.992H244.996C244.868 163.36 243.972 162.608 242.724 162.608C241.412 162.608 240.532 163.424 240.308 164.992ZM247.948 170V161.52H249.18L249.212 163.04C249.66 161.872 250.652 161.328 251.82 161.328C253.756 161.328 254.684 162.752 254.684 164.544V170H253.34V164.928C253.34 163.36 252.812 162.512 251.532 162.512C250.22 162.512 249.292 163.36 249.292 164.928V170H247.948ZM259.385 170C257.849 170 257.129 169.328 257.129 167.824V162.704H255.881V161.52H257.129V159.536H258.473V161.52H260.729V162.704H258.473V167.792C258.473 168.56 258.809 168.816 259.513 168.816H260.729V170H259.385ZM265.015 170.192C262.743 170.192 261.479 168.992 261.351 167.328L262.759 167.232C262.919 168.256 263.575 168.912 265.015 168.912C266.167 168.912 266.919 168.56 266.919 167.728C266.919 167.056 266.583 166.768 264.759 166.448C262.327 166.016 261.559 165.264 261.559 163.92C261.559 162.416 262.711 161.328 264.759 161.328C266.823 161.328 267.911 162.576 268.167 164.048L266.759 164.144C266.567 163.248 265.895 162.608 264.743 162.608C263.527 162.608 262.967 163.136 262.967 163.856C262.967 164.688 263.511 165.008 265.015 165.264C267.607 165.712 268.327 166.384 268.327 167.728C268.327 169.296 266.887 170.192 265.015 170.192ZM276.283 170.256C274.107 170.256 272.763 169.168 272.763 167.216C272.763 165.76 273.307 164.896 275.003 163.696C274.267 162.736 273.851 162.016 273.851 161.008C273.851 159.376 274.907 158.384 276.635 158.384C278.331 158.384 279.291 159.312 279.291 160.816C279.291 162.032 278.635 162.896 276.923 164.032L279.515 167.344C279.899 166.816 280.091 166 280.091 164.912L281.435 165.04C281.419 166.32 280.987 167.6 280.363 168.352L281.723 170H280.107L279.515 169.28C278.891 169.872 277.819 170.256 276.283 170.256ZM276.187 163.056C277.403 162.304 277.851 161.728 277.851 160.912C277.851 160.144 277.403 159.728 276.635 159.728C275.787 159.728 275.291 160.208 275.291 161.008C275.291 161.664 275.515 162.192 276.187 163.056ZM276.443 168.976C277.531 168.976 278.251 168.688 278.619 168.304L275.803 164.752C274.651 165.552 274.203 166.224 274.203 167.216C274.203 168.288 274.875 168.976 276.443 168.976ZM286.557 170V158.64H290.077C293.565 158.64 295.533 160.688 295.533 164.336C295.533 167.968 293.613 170 290.173 170H286.557ZM287.933 168.656H290.077C292.749 168.656 294.093 167.216 294.093 164.336C294.093 161.424 292.749 159.984 290.077 159.984H287.933V168.656ZM296.681 160.192V158.624H298.089V160.192H296.681ZM296.713 170V161.52H298.057V170H296.713ZM303.5 170.192C301.1 170.192 299.612 168.448 299.612 165.76C299.612 163.072 301.1 161.328 303.436 161.328C305.644 161.328 307.18 162.928 307.18 165.776V166.176H301.02C301.116 168 302.028 168.912 303.5 168.912C304.604 168.912 305.324 168.352 305.612 167.488L307.052 167.6C306.604 169.12 305.292 170.192 303.5 170.192ZM301.02 164.992H305.708C305.58 163.36 304.684 162.608 303.436 162.608C302.124 162.608 301.244 163.424 301.02 164.992ZM311.357 170C309.821 170 309.101 169.328 309.101 167.824V162.704H307.853V161.52H309.101V159.536H310.445V161.52H312.701V162.704H310.445V167.792C310.445 168.56 310.781 168.816 311.485 168.816H312.701V170H311.357Z" fill="#2B2B2B"/>
<rect x="337.78" y="99.28" width="185.44" height="90.44" rx="11.72" fill="white"/>
<rect x="337.78" y="99.28" width="185.44" height="90.44" rx="11.72" stroke="#E9A15E" stroke-width="0.56"/>
<path d="M377.364 131C377.364 133.15 376.792 135.166 375.792 136.905C373.744 140.466 369.902 142.863 365.5 142.863C361.099 142.863 357.647 140.702 355.534 137.437C355.421 137.263 355.313 137.085 355.209 136.905C354.209 135.166 353.637 133.15 353.637 131C353.637 130.983 353.637 130.965 353.637 130.948C353.646 128.773 354.241 126.735 355.272 124.985C357.336 121.485 361.144 119.137 365.501 119.137C369.858 119.137 373.321 121.279 375.439 124.52C375.54 124.674 375.637 124.83 375.73 124.99C376.76 126.738 377.354 128.774 377.363 130.947C377.363 130.965 377.363 130.983 377.363 131L377.364 131Z" stroke="#2B2B2B" stroke-miterlimit="10"/>
<path d="M368.46 121.21H362.449C360.664 121.21 359.217 122.658 359.217 124.443V124.443C359.217 126.229 360.664 127.676 362.449 127.676H368.46C370.245 127.676 371.692 126.229 371.692 124.443V124.443C371.692 122.658 370.245 121.21 368.46 121.21Z" stroke="#2B2B2B" stroke-miterlimit="10"/>
<path d="M371.972 127.642H359.041C357.242 127.642 355.783 129.101 355.783 130.9V130.917C355.783 132.717 357.242 134.176 359.041 134.176H371.972C373.771 134.176 375.23 132.717 375.23 130.917V130.9C375.23 129.101 373.771 127.642 371.972 127.642Z" stroke="#2B2B2B" stroke-miterlimit="10"/>
<path d="M368.46 134.142H362.449C360.664 134.142 359.217 135.589 359.217 137.374V137.375C359.217 139.16 360.664 140.607 362.449 140.607H368.46C370.245 140.607 371.692 139.16 371.692 137.375V137.374C371.692 135.589 370.245 134.142 368.46 134.142Z" stroke="#2B2B2B" stroke-miterlimit="10"/>
<path d="M355.057 170V158.64H358.961C361.649 158.64 362.993 159.584 362.993 161.696C362.993 162.976 362.241 163.904 360.977 164.128C362.529 164.352 363.473 165.408 363.473 166.88C363.473 168.944 362.081 170 359.601 170H355.057ZM356.433 163.552H358.961C360.625 163.552 361.553 162.896 361.553 161.76C361.553 160.56 360.689 159.984 358.961 159.984H356.433V163.552ZM356.433 168.656H359.601C361.153 168.656 362.033 168 362.033 166.8C362.033 165.6 361.153 164.896 359.601 164.896H356.433V168.656ZM365.228 160.192V158.624H366.636V160.192H365.228ZM365.26 170V161.52H366.604V170H365.26ZM372.046 170.192C369.694 170.192 368.158 168.464 368.158 165.76C368.158 163.056 369.694 161.328 372.046 161.328C374.382 161.328 375.918 163.056 375.918 165.76C375.918 168.464 374.382 170.192 372.046 170.192ZM372.046 168.912C373.598 168.912 374.51 167.728 374.51 165.76C374.51 163.792 373.598 162.608 372.046 162.608C370.478 162.608 369.566 163.792 369.566 165.76C369.566 167.728 370.478 168.912 372.046 168.912ZM380.091 170C378.555 170 377.835 169.328 377.835 167.824V162.704H376.587V161.52H377.835V159.536H379.179V161.52H381.435V162.704H379.179V167.792C379.179 168.56 379.515 168.816 380.219 168.816H381.435V170H380.091ZM385.945 170.192C383.545 170.192 382.057 168.448 382.057 165.76C382.057 163.072 383.545 161.328 385.881 161.328C388.089 161.328 389.625 162.928 389.625 165.776V166.176H383.465C383.561 168 384.473 168.912 385.945 168.912C387.049 168.912 387.769 168.352 388.057 167.488L389.497 167.6C389.049 169.12 387.737 170.192 385.945 170.192ZM383.465 164.992H388.153C388.025 163.36 387.129 162.608 385.881 162.608C384.569 162.608 383.689 163.424 383.465 164.992ZM391.105 170V161.52H392.289L392.337 163.088C392.641 162.016 393.313 161.52 394.353 161.52H395.185V162.8H394.369C393.089 162.8 392.449 163.488 392.449 164.88V170H391.105ZM396.266 170V161.52H397.45L397.498 163.088C397.802 162.016 398.474 161.52 399.514 161.52H400.346V162.8H399.53C398.25 162.8 397.61 163.488 397.61 164.88V170H396.266ZM403.747 170.192C401.987 170.192 400.883 169.344 400.883 167.888C400.883 166.448 401.699 165.648 403.555 165.296L406.563 164.736C406.563 163.312 405.891 162.608 404.547 162.608C403.363 162.608 402.707 163.152 402.451 164.128L401.027 164.016C401.347 162.416 402.627 161.328 404.547 161.328C406.723 161.328 407.907 162.64 407.907 164.784V168.288C407.907 168.672 408.035 168.816 408.355 168.816H408.691V170C408.595 170.016 408.387 170.032 408.179 170.032C407.155 170.032 406.691 169.632 406.579 168.688C406.163 169.568 404.995 170.192 403.747 170.192ZM403.875 169.008C405.571 169.008 406.563 167.92 406.563 166.512V165.904L403.811 166.416C402.659 166.624 402.291 167.056 402.291 167.76C402.291 168.56 402.883 169.008 403.875 169.008ZM410.024 160.192V158.624H411.432V160.192H410.024ZM410.056 170V161.52H411.4V170H410.056ZM413.248 170V161.52H414.48L414.512 163.04C414.96 161.872 415.952 161.328 417.12 161.328C419.056 161.328 419.984 162.752 419.984 164.544V170H418.64V164.928C418.64 163.36 418.112 162.512 416.832 162.512C415.52 162.512 414.592 163.36 414.592 164.928V170H413.248ZM427.313 171.76C425.841 169.552 425.089 167.216 425.089 164.88C425.089 162.544 425.841 160.208 427.313 158H428.513C427.169 160.288 426.481 162.592 426.481 164.88C426.481 167.168 427.169 169.456 428.513 171.76H427.313ZM434.087 170.256C430.887 170.256 429.015 167.76 429.015 164.336C429.015 160.928 430.919 158.384 434.119 158.384C436.839 158.384 438.247 160.016 438.663 162.128L437.223 162.224C436.935 160.752 436.055 159.728 434.119 159.728C431.527 159.728 430.455 161.872 430.455 164.336C430.455 166.928 431.575 168.912 434.119 168.912C436.135 168.912 437.383 167.376 437.415 165.568H434.151V164.256H438.695V170H437.671L437.607 168.096C437.047 169.376 435.639 170.256 434.087 170.256ZM443.143 170.192C441.447 170.192 440.359 168.992 440.359 166.976V161.52H441.703V166.608C441.703 168.256 442.279 169.008 443.495 169.008C444.839 169.008 445.655 168.096 445.655 166.576V161.52H446.999V170H445.719V168.624C445.255 169.632 444.359 170.192 443.143 170.192ZM451.889 170C450.353 170 449.633 169.328 449.633 167.824V162.704H448.385V161.52H449.633V159.536H450.977V161.52H453.233V162.704H450.977V167.792C450.977 168.56 451.313 168.816 452.017 168.816H453.233V170H451.889ZM458.33 170V158.64H459.706V163.616H465.418V158.64H466.794V170H465.418V164.96H459.706V170H458.33ZM472.424 170.192C470.024 170.192 468.536 168.448 468.536 165.76C468.536 163.072 470.024 161.328 472.36 161.328C474.568 161.328 476.104 162.928 476.104 165.776V166.176H469.944C470.04 168 470.952 168.912 472.424 168.912C473.528 168.912 474.248 168.352 474.536 167.488L475.976 167.6C475.528 169.12 474.216 170.192 472.424 170.192ZM469.944 164.992H474.632C474.504 163.36 473.608 162.608 472.36 162.608C471.048 162.608 470.168 163.424 469.944 164.992ZM479.998 170.192C478.238 170.192 477.134 169.344 477.134 167.888C477.134 166.448 477.95 165.648 479.806 165.296L482.814 164.736C482.814 163.312 482.142 162.608 480.798 162.608C479.614 162.608 478.958 163.152 478.702 164.128L477.278 164.016C477.598 162.416 478.878 161.328 480.798 161.328C482.974 161.328 484.158 162.64 484.158 164.784V168.288C484.158 168.672 484.286 168.816 484.606 168.816H484.942V170C484.846 170.016 484.638 170.032 484.43 170.032C483.406 170.032 482.942 169.632 482.83 168.688C482.414 169.568 481.246 170.192 479.998 170.192ZM480.126 169.008C481.822 169.008 482.814 167.92 482.814 166.512V165.904L480.062 166.416C478.91 166.624 478.542 167.056 478.542 167.76C478.542 168.56 479.134 169.008 480.126 169.008ZM487.815 170C486.823 170 486.151 169.52 486.151 168.4V158.64H487.495V168.288C487.495 168.64 487.671 168.816 488.023 168.816H488.759V170H487.815ZM492.509 170C490.973 170 490.253 169.328 490.253 167.824V162.704H489.005V161.52H490.253V159.536H491.597V161.52H493.853V162.704H491.597V167.792C491.597 168.56 491.933 168.816 492.637 168.816H493.853V170H492.509ZM495.238 170V158.64H496.582V162.848C497.014 161.808 497.974 161.328 499.142 161.328C500.966 161.328 501.974 162.656 501.974 164.544V170H500.63V164.928C500.63 163.296 500.038 162.512 498.854 162.512C497.478 162.512 496.582 163.376 496.582 164.944V170H495.238ZM504.407 171.76H503.207C504.551 169.456 505.239 167.168 505.239 164.88C505.239 162.592 504.551 160.288 503.207 158H504.407C505.879 160.208 506.631 162.544 506.631 164.88C506.631 167.216 505.879 169.552 504.407 171.76Z" fill="#2B2B2B"/>
<rect x="531.78" y="99.28" width="130.44" height="90.44" rx="11.72" fill="white"/>
<rect x="531.78" y="99.28" width="130.44" height="90.44" rx="11.72" stroke="#E9A15E" stroke-width="0.56"/>
<path d="M571.364 131C571.364 133.15 570.792 135.166 569.792 136.905C567.744 140.466 563.902 142.863 559.5 142.863C555.099 142.863 551.647 140.702 549.534 137.437C549.421 137.263 549.313 137.085 549.209 136.905C548.209 135.166 547.637 133.15 547.637 131C547.637 130.983 547.637 130.965 547.637 130.948C547.646 128.773 548.241 126.735 549.272 124.985C551.336 121.485 555.144 119.137 559.501 119.137C563.858 119.137 567.321 121.279 569.439 124.52C569.54 124.674 569.637 124.83 569.73 124.99C570.76 126.738 571.354 128.774 571.363 130.947C571.363 130.965 571.363 130.983 571.363 131L571.364 131Z" stroke="#2B2B2B" stroke-miterlimit="10"/>
<mask id="mask2_9816_4716" style="mask-type:luminance" maskUnits="userSpaceOnUse" x="547" y="119" width="25" height="24">
<path d="M571.364 131C571.364 133.15 570.792 135.166 569.792 136.905C567.744 140.466 563.902 142.863 559.5 142.863C555.099 142.863 551.647 140.702 549.534 137.437C549.421 137.263 549.313 137.085 549.209 136.905C548.209 135.166 547.637 133.15 547.637 131C547.637 130.983 547.637 130.965 547.637 130.948C547.646 128.773 548.241 126.735 549.272 124.985C551.336 121.485 555.144 119.137 559.501 119.137C563.858 119.137 567.321 121.279 569.439 124.52C569.54 124.674 569.637 124.83 569.73 124.99C570.76 126.738 571.354 128.774 571.363 130.947C571.363 130.965 571.363 130.983 571.363 131L571.364 131Z" fill="white"/>
</mask>
<g mask="url(#mask2_9816_4716)">
<path d="M567.723 122.833H551.223V139.017H567.723V122.833Z" stroke="#2B2B2B" stroke-miterlimit="10"/>
<path d="M562.595 127.644H556.35V133.89H562.595V127.644Z" stroke="#2B2B2B" stroke-miterlimit="10"/>
<path d="M556.508 133.804C556.472 129.644 562.596 131.878 562.596 127.644" stroke="#2B2B2B" stroke-miterlimit="10"/>
<path d="M556.473 127.68C560.468 127.644 558.134 133.804 562.632 133.768" stroke="#2B2B2B" stroke-miterlimit="10"/>
<path d="M560.094 127.68C561.636 130.211 557.342 131.168 558.786 133.768" stroke="#2B2B2B" stroke-miterlimit="10"/>
</g>
<path d="M549.401 170V158.64H553.481C556.009 158.64 557.497 159.92 557.497 162.08C557.497 164.272 556.009 165.584 553.481 165.584H550.777V170H549.401ZM550.777 164.24H553.481C555.193 164.24 556.057 163.504 556.057 162.08C556.057 160.688 555.193 159.984 553.481 159.984H550.777V164.24ZM559.503 172.4V171.216H560.479C561.071 171.216 561.311 171.04 561.471 170.64L561.775 169.84H561.311L558.207 161.52H559.679L562.207 168.592L564.623 161.52H566.095L562.655 171.072C562.335 171.984 561.743 172.4 560.607 172.4H559.503ZM569.979 170.192C567.707 170.192 566.443 168.992 566.315 167.328L567.723 167.232C567.883 168.256 568.539 168.912 569.979 168.912C571.131 168.912 571.883 168.56 571.883 167.728C571.883 167.056 571.547 166.768 569.723 166.448C567.291 166.016 566.523 165.264 566.523 163.92C566.523 162.416 567.675 161.328 569.723 161.328C571.787 161.328 572.875 162.576 573.131 164.048L571.723 164.144C571.531 163.248 570.859 162.608 569.707 162.608C568.491 162.608 567.931 163.136 567.931 163.856C567.931 164.688 568.475 165.008 569.979 165.264C572.571 165.712 573.291 166.384 573.291 167.728C573.291 169.296 571.851 170.192 569.979 170.192ZM578.129 170.192C575.761 170.192 574.241 168.448 574.241 165.76C574.241 163.072 575.761 161.328 578.129 161.328C580.081 161.328 581.441 162.384 581.729 164.272L580.321 164.368C580.129 163.248 579.281 162.608 578.129 162.608C576.561 162.608 575.649 163.792 575.649 165.76C575.649 167.728 576.561 168.912 578.129 168.912C579.281 168.912 580.129 168.272 580.321 166.992L581.729 167.088C581.441 168.976 580.081 170.192 578.129 170.192ZM582.805 170V158.64H584.149V162.848C584.581 161.808 585.541 161.328 586.709 161.328C588.533 161.328 589.541 162.656 589.541 164.544V170H588.197V164.928C588.197 163.296 587.605 162.512 586.421 162.512C585.045 162.512 584.149 163.376 584.149 164.944V170H582.805ZM594.747 170.192C592.395 170.192 590.859 168.464 590.859 165.76C590.859 163.056 592.395 161.328 594.747 161.328C597.083 161.328 598.619 163.056 598.619 165.76C598.619 168.464 597.083 170.192 594.747 170.192ZM594.747 168.912C596.299 168.912 597.211 167.728 597.211 165.76C597.211 163.792 596.299 162.608 594.747 162.608C593.179 162.608 592.267 163.792 592.267 165.76C592.267 167.728 593.179 168.912 594.747 168.912ZM600.095 170V161.52H601.327L601.359 163.008C601.775 161.968 602.655 161.328 603.743 161.328C605.023 161.328 605.919 161.968 606.287 163.104C606.655 161.968 607.519 161.328 608.767 161.328C610.575 161.328 611.567 162.496 611.567 164.544V170H610.223V164.832C610.223 163.296 609.615 162.512 608.447 162.512C607.263 162.512 606.495 163.408 606.495 164.928V170H605.151V164.928C605.151 163.424 604.655 162.512 603.407 162.512C602.223 162.512 601.439 163.424 601.439 164.928V170H600.095ZM615.826 170.192C614.066 170.192 612.962 169.344 612.962 167.888C612.962 166.448 613.778 165.648 615.634 165.296L618.642 164.736C618.642 163.312 617.97 162.608 616.626 162.608C615.442 162.608 614.786 163.152 614.53 164.128L613.106 164.016C613.426 162.416 614.706 161.328 616.626 161.328C618.802 161.328 619.986 162.64 619.986 164.784V168.288C619.986 168.672 620.114 168.816 620.434 168.816H620.77V170C620.674 170.016 620.466 170.032 620.258 170.032C619.234 170.032 618.77 169.632 618.658 168.688C618.242 169.568 617.074 170.192 615.826 170.192ZM615.954 169.008C617.65 169.008 618.642 167.92 618.642 166.512V165.904L615.89 166.416C614.738 166.624 614.37 167.056 614.37 167.76C614.37 168.56 614.962 169.008 615.954 169.008ZM624.442 170C622.906 170 622.186 169.328 622.186 167.824V162.704H620.938V161.52H622.186V159.536H623.53V161.52H625.786V162.704H623.53V167.792C623.53 168.56 623.866 168.816 624.57 168.816H625.786V170H624.442ZM627.138 160.192V158.624H628.546V160.192H627.138ZM627.17 170V161.52H628.514V170H627.17ZM633.957 170.192C631.589 170.192 630.069 168.448 630.069 165.76C630.069 163.072 631.589 161.328 633.957 161.328C635.909 161.328 637.269 162.384 637.557 164.272L636.149 164.368C635.957 163.248 635.109 162.608 633.957 162.608C632.389 162.608 631.477 163.792 631.477 165.76C631.477 167.728 632.389 168.912 633.957 168.912C635.109 168.912 635.957 168.272 636.149 166.992L637.557 167.088C637.269 168.976 635.909 170.192 633.957 170.192ZM642.003 170.192C639.731 170.192 638.467 168.992 638.339 167.328L639.747 167.232C639.907 168.256 640.563 168.912 642.003 168.912C643.155 168.912 643.907 168.56 643.907 167.728C643.907 167.056 643.571 166.768 641.747 166.448C639.315 166.016 638.547 165.264 638.547 163.92C638.547 162.416 639.699 161.328 641.747 161.328C643.811 161.328 644.899 162.576 645.155 164.048L643.747 164.144C643.555 163.248 642.883 162.608 641.731 162.608C640.515 162.608 639.955 163.136 639.955 163.856C639.955 164.688 640.499 165.008 642.003 165.264C644.595 165.712 645.315 166.384 645.315 167.728C645.315 169.296 643.875 170.192 642.003 170.192Z" fill="#2B2B2B"/>
</svg>
